<mxfile host="Electron" modified="2024-03-25T10:17:34.453Z" agent="Mozilla/5.0 (X11; Linux x86_64) AppleWebKit/537.36 (KHTML, like Gecko) draw.io/24.0.4 Chrome/120.0.6099.109 Electron/28.1.0 Safari/537.36" etag="wI-snuo6sj8MbQgfeGDZ" version="24.0.4" type="device">
  <diagram name="Page-1" id="TRk0WZaPM4J8h0XT-_UD">
    <mxGraphModel dx="2261" dy="1991" grid="1" gridSize="10" guides="1" tooltips="1" connect="1" arrows="1" fold="1" page="1" pageScale="1" pageWidth="827" pageHeight="1169" math="0" shadow="0">
      <root>
        <mxCell id="0" />
        <mxCell id="1" parent="0" />
        <mxCell id="MDL0eDjs6nPppl6UNTQ7-56" value="" style="rounded=0;whiteSpace=wrap;html=1;" parent="1" vertex="1">
          <mxGeometry x="1460" y="1410" width="160" height="220" as="geometry" />
        </mxCell>
        <mxCell id="XQ-VizRQmGnHVBo7JK1_-176" value="" style="rounded=0;whiteSpace=wrap;html=1;fillColor=#f9f7ed;strokeColor=#36393d;" parent="1" vertex="1">
          <mxGeometry x="-360" y="1450" width="580" height="330" as="geometry" />
        </mxCell>
        <mxCell id="XQ-VizRQmGnHVBo7JK1_-36" value="" style="rounded=0;whiteSpace=wrap;html=1;align=left;" parent="1" vertex="1">
          <mxGeometry x="-360" y="770" width="580" height="660" as="geometry" />
        </mxCell>
        <mxCell id="XQ-VizRQmGnHVBo7JK1_-44" style="edgeStyle=orthogonalEdgeStyle;rounded=0;orthogonalLoop=1;jettySize=auto;html=1;exitX=0;exitY=0.5;exitDx=0;exitDy=0;fillColor=#dae8fc;strokeColor=#6c8ebf;" parent="1" source="XQ-VizRQmGnHVBo7JK1_-1" target="XQ-VizRQmGnHVBo7JK1_-41" edge="1">
          <mxGeometry relative="1" as="geometry" />
        </mxCell>
        <mxCell id="XQ-VizRQmGnHVBo7JK1_-22" value="" style="group" parent="1" vertex="1" connectable="0">
          <mxGeometry x="460" y="460" width="310" height="210" as="geometry" />
        </mxCell>
        <mxCell id="XQ-VizRQmGnHVBo7JK1_-20" value="" style="group" parent="XQ-VizRQmGnHVBo7JK1_-22" vertex="1" connectable="0">
          <mxGeometry width="310" height="210" as="geometry" />
        </mxCell>
        <mxCell id="XQ-VizRQmGnHVBo7JK1_-12" value="" style="rounded=0;whiteSpace=wrap;html=1;align=left;" parent="XQ-VizRQmGnHVBo7JK1_-20" vertex="1">
          <mxGeometry width="290" height="190" as="geometry" />
        </mxCell>
        <mxCell id="XQ-VizRQmGnHVBo7JK1_-14" value="" style="rounded=0;whiteSpace=wrap;html=1;align=left;" parent="XQ-VizRQmGnHVBo7JK1_-20" vertex="1">
          <mxGeometry x="10" y="10" width="290" height="190" as="geometry" />
        </mxCell>
        <mxCell id="XQ-VizRQmGnHVBo7JK1_-15" value="" style="rounded=0;whiteSpace=wrap;html=1;align=left;" parent="XQ-VizRQmGnHVBo7JK1_-20" vertex="1">
          <mxGeometry x="20" y="20" width="290" height="190" as="geometry" />
        </mxCell>
        <mxCell id="XQ-VizRQmGnHVBo7JK1_-18" value="nbs-control" style="text;strokeColor=none;fillColor=none;align=left;verticalAlign=middle;spacingLeft=4;spacingRight=4;overflow=hidden;points=[[0,0.5],[1,0.5]];portConstraint=eastwest;rotatable=0;whiteSpace=wrap;html=1;" parent="XQ-VizRQmGnHVBo7JK1_-20" vertex="1">
          <mxGeometry x="24" y="20" width="80" height="30" as="geometry" />
        </mxCell>
        <mxCell id="XQ-VizRQmGnHVBo7JK1_-21" value="" style="group" parent="XQ-VizRQmGnHVBo7JK1_-22" vertex="1" connectable="0">
          <mxGeometry x="80" y="60" width="220" height="140" as="geometry" />
        </mxCell>
        <mxCell id="XQ-VizRQmGnHVBo7JK1_-16" value="" style="rounded=0;whiteSpace=wrap;html=1;" parent="XQ-VizRQmGnHVBo7JK1_-21" vertex="1">
          <mxGeometry width="220" height="140" as="geometry" />
        </mxCell>
        <mxCell id="XQ-VizRQmGnHVBo7JK1_-17" value="nbsd" style="text;strokeColor=none;fillColor=none;align=left;verticalAlign=middle;spacingLeft=4;spacingRight=4;overflow=hidden;points=[[0,0.5],[1,0.5]];portConstraint=eastwest;rotatable=0;whiteSpace=wrap;html=1;" parent="XQ-VizRQmGnHVBo7JK1_-21" vertex="1">
          <mxGeometry width="80" height="30" as="geometry" />
        </mxCell>
        <mxCell id="XQ-VizRQmGnHVBo7JK1_-24" style="edgeStyle=orthogonalEdgeStyle;rounded=0;orthogonalLoop=1;jettySize=auto;html=1;exitX=0;exitY=0.5;exitDx=0;exitDy=0;fillColor=#dae8fc;strokeColor=#6c8ebf;" parent="1" source="XQ-VizRQmGnHVBo7JK1_-11" target="XQ-VizRQmGnHVBo7JK1_-17" edge="1">
          <mxGeometry relative="1" as="geometry">
            <Array as="points">
              <mxPoint x="494" y="130" />
              <mxPoint x="494" y="370" />
              <mxPoint x="570" y="370" />
            </Array>
          </mxGeometry>
        </mxCell>
        <mxCell id="XQ-VizRQmGnHVBo7JK1_-25" value="" style="endArrow=classic;html=1;rounded=0;exitX=0.5;exitY=1;exitDx=0;exitDy=0;entryX=0.718;entryY=-0.014;entryDx=0;entryDy=0;entryPerimeter=0;fillColor=#dae8fc;strokeColor=#6c8ebf;" parent="1" source="XQ-VizRQmGnHVBo7JK1_-9" target="XQ-VizRQmGnHVBo7JK1_-16" edge="1">
          <mxGeometry width="50" height="50" relative="1" as="geometry">
            <mxPoint x="390" y="540" as="sourcePoint" />
            <mxPoint x="440" y="490" as="targetPoint" />
          </mxGeometry>
        </mxCell>
        <mxCell id="XQ-VizRQmGnHVBo7JK1_-28" value="" style="group" parent="1" vertex="1" connectable="0">
          <mxGeometry x="580" y="240" width="180" height="120" as="geometry" />
        </mxCell>
        <mxCell id="XQ-VizRQmGnHVBo7JK1_-4" value="disk-manager" style="rounded=0;whiteSpace=wrap;html=1;" parent="XQ-VizRQmGnHVBo7JK1_-28" vertex="1">
          <mxGeometry x="10" y="10" width="120" height="60" as="geometry" />
        </mxCell>
        <mxCell id="XQ-VizRQmGnHVBo7JK1_-5" value="disk-manager" style="rounded=0;whiteSpace=wrap;html=1;" parent="XQ-VizRQmGnHVBo7JK1_-28" vertex="1">
          <mxGeometry x="20" y="20" width="120" height="60" as="geometry" />
        </mxCell>
        <mxCell id="XQ-VizRQmGnHVBo7JK1_-6" value="disk-manager" style="rounded=0;whiteSpace=wrap;html=1;" parent="XQ-VizRQmGnHVBo7JK1_-28" vertex="1">
          <mxGeometry x="30" y="30" width="120" height="60" as="geometry" />
        </mxCell>
        <mxCell id="XQ-VizRQmGnHVBo7JK1_-7" value="disk-manager" style="rounded=0;whiteSpace=wrap;html=1;" parent="XQ-VizRQmGnHVBo7JK1_-28" vertex="1">
          <mxGeometry x="40" y="40" width="120" height="60" as="geometry" />
        </mxCell>
        <mxCell id="XQ-VizRQmGnHVBo7JK1_-8" value="disk-manager" style="rounded=0;whiteSpace=wrap;html=1;" parent="XQ-VizRQmGnHVBo7JK1_-28" vertex="1">
          <mxGeometry x="50" y="50" width="120" height="60" as="geometry" />
        </mxCell>
        <mxCell id="XQ-VizRQmGnHVBo7JK1_-9" value="disk-manager&lt;br&gt;data plane&lt;br&gt;(snapshot)" style="rounded=0;whiteSpace=wrap;html=1;" parent="XQ-VizRQmGnHVBo7JK1_-28" vertex="1">
          <mxGeometry x="60" y="60" width="120" height="60" as="geometry" />
        </mxCell>
        <mxCell id="XQ-VizRQmGnHVBo7JK1_-30" style="edgeStyle=orthogonalEdgeStyle;rounded=0;orthogonalLoop=1;jettySize=auto;html=1;exitX=1;exitY=0.5;exitDx=0;exitDy=0;fillColor=#dae8fc;strokeColor=#6c8ebf;" parent="1" source="XQ-VizRQmGnHVBo7JK1_-11" target="XQ-VizRQmGnHVBo7JK1_-9" edge="1">
          <mxGeometry relative="1" as="geometry">
            <Array as="points">
              <mxPoint x="700" y="130" />
            </Array>
          </mxGeometry>
        </mxCell>
        <mxCell id="XQ-VizRQmGnHVBo7JK1_-31" value="network replicated disks" style="text;strokeColor=none;fillColor=none;align=left;verticalAlign=middle;spacingLeft=4;spacingRight=4;overflow=hidden;points=[[0,0.5],[1,0.5]];portConstraint=eastwest;rotatable=0;whiteSpace=wrap;html=1;" parent="1" vertex="1">
          <mxGeometry x="-360" y="770" width="140" height="20" as="geometry" />
        </mxCell>
        <mxCell id="XQ-VizRQmGnHVBo7JK1_-32" value="" style="group" parent="1" vertex="1" connectable="0">
          <mxGeometry x="550" y="80" width="140" height="80" as="geometry" />
        </mxCell>
        <mxCell id="XQ-VizRQmGnHVBo7JK1_-2" value="disk-manager&lt;br&gt;control plane" style="rounded=0;whiteSpace=wrap;html=1;" parent="XQ-VizRQmGnHVBo7JK1_-32" vertex="1">
          <mxGeometry width="120" height="60" as="geometry" />
        </mxCell>
        <mxCell id="XQ-VizRQmGnHVBo7JK1_-10" value="disk-manager&lt;br&gt;control plane" style="rounded=0;whiteSpace=wrap;html=1;" parent="XQ-VizRQmGnHVBo7JK1_-32" vertex="1">
          <mxGeometry x="10" y="10" width="120" height="60" as="geometry" />
        </mxCell>
        <mxCell id="XQ-VizRQmGnHVBo7JK1_-11" value="disk-manager&lt;br&gt;control plane" style="rounded=0;whiteSpace=wrap;html=1;" parent="XQ-VizRQmGnHVBo7JK1_-32" vertex="1">
          <mxGeometry x="20" y="20" width="120" height="60" as="geometry" />
        </mxCell>
        <mxCell id="XQ-VizRQmGnHVBo7JK1_-33" value="" style="endArrow=classic;html=1;rounded=0;exitX=0.5;exitY=1;exitDx=0;exitDy=0;fillColor=#dae8fc;strokeColor=#6c8ebf;" parent="1" source="XQ-VizRQmGnHVBo7JK1_-59" target="XQ-VizRQmGnHVBo7JK1_-11" edge="1">
          <mxGeometry width="50" height="50" relative="1" as="geometry">
            <mxPoint x="630" y="60" as="sourcePoint" />
            <mxPoint x="440" y="130" as="targetPoint" />
          </mxGeometry>
        </mxCell>
        <mxCell id="XQ-VizRQmGnHVBo7JK1_-220" style="edgeStyle=orthogonalEdgeStyle;rounded=0;orthogonalLoop=1;jettySize=auto;html=1;exitX=0.5;exitY=1;exitDx=0;exitDy=0;entryX=0.5;entryY=0;entryDx=0;entryDy=0;fillColor=#d5e8d4;strokeColor=#82b366;" parent="1" source="XQ-VizRQmGnHVBo7JK1_-37" target="XQ-VizRQmGnHVBo7JK1_-187" edge="1">
          <mxGeometry relative="1" as="geometry">
            <Array as="points">
              <mxPoint x="-70" y="1530" />
              <mxPoint x="-185" y="1530" />
            </Array>
          </mxGeometry>
        </mxCell>
        <mxCell id="XQ-VizRQmGnHVBo7JK1_-224" style="edgeStyle=orthogonalEdgeStyle;rounded=0;orthogonalLoop=1;jettySize=auto;html=1;exitX=0.5;exitY=1;exitDx=0;exitDy=0;entryX=0.5;entryY=0;entryDx=0;entryDy=0;strokeColor=#0000CC;" parent="1" source="XQ-VizRQmGnHVBo7JK1_-37" target="XQ-VizRQmGnHVBo7JK1_-192" edge="1">
          <mxGeometry relative="1" as="geometry">
            <Array as="points">
              <mxPoint x="-70" y="1530" />
              <mxPoint x="115" y="1530" />
            </Array>
          </mxGeometry>
        </mxCell>
        <mxCell id="XQ-VizRQmGnHVBo7JK1_-225" style="edgeStyle=orthogonalEdgeStyle;rounded=0;orthogonalLoop=1;jettySize=auto;html=1;exitX=0.5;exitY=1;exitDx=0;exitDy=0;entryX=0.5;entryY=0;entryDx=0;entryDy=0;strokeColor=#0000CC;" parent="1" source="XQ-VizRQmGnHVBo7JK1_-37" target="XQ-VizRQmGnHVBo7JK1_-191" edge="1">
          <mxGeometry relative="1" as="geometry">
            <Array as="points">
              <mxPoint x="-70" y="1530" />
              <mxPoint x="55" y="1530" />
            </Array>
          </mxGeometry>
        </mxCell>
        <mxCell id="XQ-VizRQmGnHVBo7JK1_-226" style="edgeStyle=orthogonalEdgeStyle;rounded=0;orthogonalLoop=1;jettySize=auto;html=1;exitX=0.75;exitY=1;exitDx=0;exitDy=0;entryX=0.5;entryY=1;entryDx=0;entryDy=0;fillColor=#d5e8d4;strokeColor=#82b366;" parent="1" source="XQ-VizRQmGnHVBo7JK1_-37" target="XQ-VizRQmGnHVBo7JK1_-178" edge="1">
          <mxGeometry relative="1" as="geometry">
            <Array as="points">
              <mxPoint x="75" y="1480" />
              <mxPoint x="210" y="1480" />
              <mxPoint x="210" y="1730" />
              <mxPoint x="-245" y="1730" />
            </Array>
          </mxGeometry>
        </mxCell>
        <mxCell id="XQ-VizRQmGnHVBo7JK1_-228" style="edgeStyle=orthogonalEdgeStyle;rounded=0;orthogonalLoop=1;jettySize=auto;html=1;exitX=0.75;exitY=1;exitDx=0;exitDy=0;fillColor=#d5e8d4;strokeColor=#82b366;" parent="1" source="XQ-VizRQmGnHVBo7JK1_-37" target="XQ-VizRQmGnHVBo7JK1_-180" edge="1">
          <mxGeometry relative="1" as="geometry">
            <Array as="points">
              <mxPoint x="75" y="1480" />
              <mxPoint x="210" y="1480" />
              <mxPoint x="210" y="1730" />
              <mxPoint x="-125" y="1730" />
            </Array>
          </mxGeometry>
        </mxCell>
        <mxCell id="XQ-VizRQmGnHVBo7JK1_-229" style="edgeStyle=orthogonalEdgeStyle;rounded=0;orthogonalLoop=1;jettySize=auto;html=1;exitX=0.75;exitY=1;exitDx=0;exitDy=0;fillColor=#d5e8d4;strokeColor=#82b366;" parent="1" source="XQ-VizRQmGnHVBo7JK1_-37" target="XQ-VizRQmGnHVBo7JK1_-181" edge="1">
          <mxGeometry relative="1" as="geometry">
            <Array as="points">
              <mxPoint x="75" y="1480" />
              <mxPoint x="210" y="1480" />
              <mxPoint x="210" y="1730" />
              <mxPoint x="-65" y="1730" />
            </Array>
          </mxGeometry>
        </mxCell>
        <mxCell id="XQ-VizRQmGnHVBo7JK1_-231" style="edgeStyle=orthogonalEdgeStyle;rounded=0;orthogonalLoop=1;jettySize=auto;html=1;entryX=0.5;entryY=1;entryDx=0;entryDy=0;strokeColor=#0000CC;exitX=0.75;exitY=1;exitDx=0;exitDy=0;" parent="1" source="XQ-VizRQmGnHVBo7JK1_-37" target="XQ-VizRQmGnHVBo7JK1_-184" edge="1">
          <mxGeometry relative="1" as="geometry">
            <mxPoint x="70" y="1430" as="sourcePoint" />
            <Array as="points">
              <mxPoint x="75" y="1480" />
              <mxPoint x="210" y="1480" />
              <mxPoint x="210" y="1690" />
              <mxPoint x="115" y="1690" />
            </Array>
          </mxGeometry>
        </mxCell>
        <mxCell id="XQ-VizRQmGnHVBo7JK1_-232" style="edgeStyle=orthogonalEdgeStyle;rounded=0;orthogonalLoop=1;jettySize=auto;html=1;exitX=0.75;exitY=1;exitDx=0;exitDy=0;entryX=0.501;entryY=1;entryDx=0;entryDy=0;strokeColor=#0000CC;entryPerimeter=0;" parent="1" source="XQ-VizRQmGnHVBo7JK1_-37" target="XQ-VizRQmGnHVBo7JK1_-185" edge="1">
          <mxGeometry relative="1" as="geometry">
            <Array as="points">
              <mxPoint x="75" y="1480" />
              <mxPoint x="210" y="1480" />
              <mxPoint x="210" y="1690" />
              <mxPoint x="175" y="1690" />
            </Array>
          </mxGeometry>
        </mxCell>
        <mxCell id="MDL0eDjs6nPppl6UNTQ7-6" style="edgeStyle=orthogonalEdgeStyle;rounded=0;orthogonalLoop=1;jettySize=auto;html=1;exitX=0.5;exitY=1;exitDx=0;exitDy=0;entryX=0.5;entryY=0;entryDx=0;entryDy=0;fillColor=#d5e8d4;strokeColor=#82b366;" parent="1" source="XQ-VizRQmGnHVBo7JK1_-37" target="XQ-VizRQmGnHVBo7JK1_-189" edge="1">
          <mxGeometry relative="1" as="geometry">
            <Array as="points">
              <mxPoint x="-70" y="1530" />
              <mxPoint x="-65" y="1530" />
            </Array>
          </mxGeometry>
        </mxCell>
        <mxCell id="MDL0eDjs6nPppl6UNTQ7-7" style="edgeStyle=orthogonalEdgeStyle;rounded=0;orthogonalLoop=1;jettySize=auto;html=1;exitX=0.5;exitY=1;exitDx=0;exitDy=0;entryX=0.5;entryY=0;entryDx=0;entryDy=0;fillColor=#d5e8d4;strokeColor=#82b366;" parent="1" source="XQ-VizRQmGnHVBo7JK1_-37" target="XQ-VizRQmGnHVBo7JK1_-186" edge="1">
          <mxGeometry relative="1" as="geometry">
            <Array as="points">
              <mxPoint x="-70" y="1530" />
              <mxPoint x="-245" y="1530" />
            </Array>
          </mxGeometry>
        </mxCell>
        <mxCell id="XQ-VizRQmGnHVBo7JK1_-37" value="" style="rounded=0;whiteSpace=wrap;html=1;fillColor=#f9f7ed;strokeColor=#36393d;" parent="1" vertex="1">
          <mxGeometry x="-360" y="1330" width="580" height="100" as="geometry" />
        </mxCell>
        <mxCell id="XQ-VizRQmGnHVBo7JK1_-55" style="edgeStyle=orthogonalEdgeStyle;rounded=0;orthogonalLoop=1;jettySize=auto;html=1;exitX=0.75;exitY=0;exitDx=0;exitDy=0;entryX=0;entryY=0.5;entryDx=0;entryDy=0;fillColor=#dae8fc;strokeColor=#6c8ebf;" parent="1" source="XQ-VizRQmGnHVBo7JK1_-38" target="XQ-VizRQmGnHVBo7JK1_-48" edge="1">
          <mxGeometry relative="1" as="geometry" />
        </mxCell>
        <mxCell id="XQ-VizRQmGnHVBo7JK1_-38" value="" style="rounded=0;whiteSpace=wrap;html=1;fillColor=#ffe6cc;strokeColor=#d79b00;" parent="1" vertex="1">
          <mxGeometry x="-360" y="1090" width="580" height="200" as="geometry" />
        </mxCell>
        <mxCell id="XQ-VizRQmGnHVBo7JK1_-164" style="edgeStyle=orthogonalEdgeStyle;rounded=0;orthogonalLoop=1;jettySize=auto;html=1;exitX=0.5;exitY=1;exitDx=0;exitDy=0;fillColor=#d5e8d4;strokeColor=#82b366;" parent="1" source="XQ-VizRQmGnHVBo7JK1_-169" edge="1">
          <mxGeometry relative="1" as="geometry">
            <mxPoint x="-70" y="1430" as="targetPoint" />
          </mxGeometry>
        </mxCell>
        <mxCell id="XQ-VizRQmGnHVBo7JK1_-54" style="edgeStyle=orthogonalEdgeStyle;rounded=0;orthogonalLoop=1;jettySize=auto;html=1;exitX=0.5;exitY=1;exitDx=0;exitDy=0;entryX=0.5;entryY=0;entryDx=0;entryDy=0;fillColor=#dae8fc;strokeColor=#6c8ebf;" parent="1" source="XQ-VizRQmGnHVBo7JK1_-41" target="XQ-VizRQmGnHVBo7JK1_-48" edge="1">
          <mxGeometry relative="1" as="geometry" />
        </mxCell>
        <mxCell id="XQ-VizRQmGnHVBo7JK1_-255" style="edgeStyle=orthogonalEdgeStyle;rounded=0;orthogonalLoop=1;jettySize=auto;html=1;exitX=0;exitY=0.5;exitDx=0;exitDy=0;entryX=0.652;entryY=0;entryDx=0;entryDy=0;entryPerimeter=0;fillColor=#dae8fc;strokeColor=#6c8ebf;" parent="1" source="XQ-VizRQmGnHVBo7JK1_-41" target="XQ-VizRQmGnHVBo7JK1_-38" edge="1">
          <mxGeometry relative="1" as="geometry">
            <Array as="points">
              <mxPoint x="40" y="820" />
              <mxPoint x="40" y="960" />
              <mxPoint x="18" y="960" />
            </Array>
          </mxGeometry>
        </mxCell>
        <mxCell id="XQ-VizRQmGnHVBo7JK1_-41" value="compute&lt;br&gt;agent" style="rounded=0;whiteSpace=wrap;html=1;" parent="1" vertex="1">
          <mxGeometry x="50" y="790" width="120" height="60" as="geometry" />
        </mxCell>
        <mxCell id="XQ-VizRQmGnHVBo7JK1_-48" value="linux kernel keyring&lt;br&gt;man 2 keyctl&lt;br&gt;disk_id -&amp;gt; unix socket path" style="rounded=0;whiteSpace=wrap;html=1;" parent="1" vertex="1">
          <mxGeometry x="50" y="980" width="150" height="60" as="geometry" />
        </mxCell>
        <mxCell id="XQ-VizRQmGnHVBo7JK1_-53" value="" style="group" parent="1" vertex="1" connectable="0">
          <mxGeometry x="-350" y="810" width="290" height="90" as="geometry" />
        </mxCell>
        <mxCell id="XQ-VizRQmGnHVBo7JK1_-39" value="" style="rounded=0;whiteSpace=wrap;html=1;" parent="XQ-VizRQmGnHVBo7JK1_-53" vertex="1">
          <mxGeometry width="280" height="80" as="geometry" />
        </mxCell>
        <mxCell id="XQ-VizRQmGnHVBo7JK1_-52" value="QEMU" style="text;strokeColor=none;fillColor=none;align=left;verticalAlign=middle;spacingLeft=4;spacingRight=4;overflow=hidden;points=[[0,0.5],[1,0.5]];portConstraint=eastwest;rotatable=0;whiteSpace=wrap;html=1;" parent="XQ-VizRQmGnHVBo7JK1_-53" vertex="1">
          <mxGeometry width="50" height="20" as="geometry" />
        </mxCell>
        <mxCell id="CJ0fTV0hN7LeKu4SsA6d-3" value="or" style="rounded=0;whiteSpace=wrap;html=1;fillColor=#e1d5e7;strokeColor=#9673a6;" parent="XQ-VizRQmGnHVBo7JK1_-53" vertex="1">
          <mxGeometry x="80" y="70" width="20" height="20" as="geometry" />
        </mxCell>
        <mxCell id="XQ-VizRQmGnHVBo7JK1_-140" value="or" style="rounded=0;whiteSpace=wrap;html=1;fillColor=#e1d5e7;strokeColor=#9673a6;" parent="XQ-VizRQmGnHVBo7JK1_-53" vertex="1">
          <mxGeometry x="180" y="70" width="20" height="20" as="geometry" />
        </mxCell>
        <mxCell id="MDL0eDjs6nPppl6UNTQ7-14" value="QEMU and compute agent part is common for all types of disks, except local disks with fast path enabled. All disks can use plugin, nbd or vhost" style="text;html=1;align=center;verticalAlign=middle;whiteSpace=wrap;rounded=0;" parent="XQ-VizRQmGnHVBo7JK1_-53" vertex="1">
          <mxGeometry x="50" y="10" width="230" height="50" as="geometry" />
        </mxCell>
        <mxCell id="XQ-VizRQmGnHVBo7JK1_-60" value="" style="group" parent="1" vertex="1" connectable="0">
          <mxGeometry x="570" y="-40" width="120" height="80" as="geometry" />
        </mxCell>
        <mxCell id="XQ-VizRQmGnHVBo7JK1_-1" value="Compute&lt;br&gt;control plane" style="rounded=0;whiteSpace=wrap;html=1;" parent="XQ-VizRQmGnHVBo7JK1_-60" vertex="1">
          <mxGeometry width="120" height="60" as="geometry" />
        </mxCell>
        <mxCell id="XQ-VizRQmGnHVBo7JK1_-59" value="disk manager sdk" style="rounded=0;whiteSpace=wrap;html=1;" parent="XQ-VizRQmGnHVBo7JK1_-60" vertex="1">
          <mxGeometry y="60" width="120" height="20" as="geometry" />
        </mxCell>
        <mxCell id="XQ-VizRQmGnHVBo7JK1_-158" value="ydbd" style="text;strokeColor=none;fillColor=none;align=left;verticalAlign=middle;spacingLeft=4;spacingRight=4;overflow=hidden;points=[[0,0.5],[1,0.5]];portConstraint=eastwest;rotatable=0;whiteSpace=wrap;html=1;" parent="1" vertex="1">
          <mxGeometry x="-360" y="1330" width="40" height="20" as="geometry" />
        </mxCell>
        <mxCell id="XQ-VizRQmGnHVBo7JK1_-159" value="SCHEME_SHARD&lt;br&gt;tablet creation coordination" style="rounded=0;whiteSpace=wrap;html=1;fillColor=#b0e3e6;strokeColor=#0e8088;" parent="1" vertex="1">
          <mxGeometry x="-200" y="1360" width="120" height="60" as="geometry" />
        </mxCell>
        <mxCell id="XQ-VizRQmGnHVBo7JK1_-160" value="HIVE&lt;br&gt;tablet watchdog" style="rounded=0;whiteSpace=wrap;html=1;fillColor=#b0e3e6;strokeColor=#0e8088;" parent="1" vertex="1">
          <mxGeometry x="-60" y="1360" width="120" height="60" as="geometry" />
        </mxCell>
        <mxCell id="XQ-VizRQmGnHVBo7JK1_-161" value="NODE_BROKER&lt;br&gt;tracks cluster nodes&lt;br&gt;sets up node id" style="rounded=0;whiteSpace=wrap;html=1;fillColor=#b0e3e6;strokeColor=#0e8088;" parent="1" vertex="1">
          <mxGeometry x="90" y="1360" width="120" height="60" as="geometry" />
        </mxCell>
        <mxCell id="XQ-VizRQmGnHVBo7JK1_-162" value="BS_CONTROLLER&lt;br&gt;BlobStorage configuration" style="rounded=0;whiteSpace=wrap;html=1;fillColor=#b0e3e6;strokeColor=#0e8088;" parent="1" vertex="1">
          <mxGeometry x="-340" y="1360" width="120" height="60" as="geometry" />
        </mxCell>
        <mxCell id="XQ-VizRQmGnHVBo7JK1_-163" value="nbsd" style="text;strokeColor=none;fillColor=none;align=left;verticalAlign=middle;spacingLeft=4;spacingRight=4;overflow=hidden;points=[[0,0.5],[1,0.5]];portConstraint=eastwest;rotatable=0;whiteSpace=wrap;html=1;" parent="1" vertex="1">
          <mxGeometry x="-360" y="1090" width="40" height="20" as="geometry" />
        </mxCell>
        <mxCell id="XQ-VizRQmGnHVBo7JK1_-234" style="edgeStyle=orthogonalEdgeStyle;rounded=0;orthogonalLoop=1;jettySize=auto;html=1;exitX=0.5;exitY=1;exitDx=0;exitDy=0;startArrow=none;startFill=0;fillColor=#d5e8d4;strokeColor=#82b366;" parent="1" source="XQ-VizRQmGnHVBo7JK1_-166" target="MDL0eDjs6nPppl6UNTQ7-111" edge="1">
          <mxGeometry relative="1" as="geometry">
            <mxPoint x="-70" y="1210" as="targetPoint" />
            <Array as="points">
              <mxPoint x="-70" y="1190" />
              <mxPoint x="-145" y="1190" />
            </Array>
          </mxGeometry>
        </mxCell>
        <mxCell id="MDL0eDjs6nPppl6UNTQ7-117" style="edgeStyle=orthogonalEdgeStyle;rounded=0;orthogonalLoop=1;jettySize=auto;html=1;exitX=0.5;exitY=1;exitDx=0;exitDy=0;entryX=0.5;entryY=0;entryDx=0;entryDy=0;fillColor=#d5e8d4;strokeColor=#82b366;" parent="1" source="XQ-VizRQmGnHVBo7JK1_-166" target="MDL0eDjs6nPppl6UNTQ7-114" edge="1">
          <mxGeometry relative="1" as="geometry">
            <Array as="points">
              <mxPoint x="-70" y="1190" />
              <mxPoint x="10" y="1190" />
            </Array>
          </mxGeometry>
        </mxCell>
        <mxCell id="XQ-VizRQmGnHVBo7JK1_-166" value="Volume" style="rounded=0;whiteSpace=wrap;html=1;fillColor=#fff2cc;strokeColor=#d6b656;" parent="1" vertex="1">
          <mxGeometry x="-130" y="1165" width="120" height="20" as="geometry" />
        </mxCell>
        <mxCell id="XQ-VizRQmGnHVBo7JK1_-235" style="edgeStyle=orthogonalEdgeStyle;rounded=0;orthogonalLoop=1;jettySize=auto;html=1;exitX=1;exitY=0.5;exitDx=0;exitDy=0;entryX=0;entryY=0.5;entryDx=0;entryDy=0;startArrow=classic;startFill=1;fillColor=#d5e8d4;strokeColor=#82b366;" parent="1" source="XQ-VizRQmGnHVBo7JK1_-168" target="XQ-VizRQmGnHVBo7JK1_-169" edge="1">
          <mxGeometry relative="1" as="geometry" />
        </mxCell>
        <mxCell id="XQ-VizRQmGnHVBo7JK1_-168" value="Index" style="rounded=0;whiteSpace=wrap;html=1;fillColor=#fff2cc;strokeColor=#d6b656;" parent="1" vertex="1">
          <mxGeometry x="-320" y="1260" width="120" height="20" as="geometry" />
        </mxCell>
        <mxCell id="XQ-VizRQmGnHVBo7JK1_-169" value="BS Proxy" style="rounded=0;whiteSpace=wrap;html=1;fillColor=#fff2cc;strokeColor=#d6b656;" parent="1" vertex="1">
          <mxGeometry x="-130" y="1260" width="120" height="20" as="geometry" />
        </mxCell>
        <mxCell id="XQ-VizRQmGnHVBo7JK1_-177" value="YDB Blobstorage" style="text;strokeColor=none;fillColor=none;align=left;verticalAlign=middle;spacingLeft=4;spacingRight=4;overflow=hidden;points=[[0,0.5],[1,0.5]];portConstraint=eastwest;rotatable=0;whiteSpace=wrap;html=1;" parent="1" vertex="1">
          <mxGeometry x="-360" y="1450" width="110" height="20" as="geometry" />
        </mxCell>
        <mxCell id="XQ-VizRQmGnHVBo7JK1_-178" value="index&lt;br&gt;disk&lt;br&gt;1" style="rounded=0;whiteSpace=wrap;html=1;fillColor=#cdeb8b;strokeColor=#36393d;" parent="1" vertex="1">
          <mxGeometry x="-270" y="1620" width="50" height="50" as="geometry" />
        </mxCell>
        <mxCell id="XQ-VizRQmGnHVBo7JK1_-179" value="index&lt;br&gt;disk&lt;br&gt;2" style="rounded=0;whiteSpace=wrap;html=1;" parent="1" vertex="1">
          <mxGeometry x="-210" y="1620" width="50" height="50" as="geometry" />
        </mxCell>
        <mxCell id="XQ-VizRQmGnHVBo7JK1_-180" value="index&lt;br&gt;disk&lt;br&gt;3" style="rounded=0;whiteSpace=wrap;html=1;fillColor=#cdeb8b;strokeColor=#36393d;" parent="1" vertex="1">
          <mxGeometry x="-150" y="1620" width="50" height="50" as="geometry" />
        </mxCell>
        <mxCell id="XQ-VizRQmGnHVBo7JK1_-181" value="index&lt;br&gt;disk&lt;br&gt;4" style="rounded=0;whiteSpace=wrap;html=1;fillColor=#cdeb8b;strokeColor=#36393d;" parent="1" vertex="1">
          <mxGeometry x="-90" y="1620" width="50" height="50" as="geometry" />
        </mxCell>
        <mxCell id="XQ-VizRQmGnHVBo7JK1_-182" value="index&lt;br&gt;disk&lt;br&gt;5" style="rounded=0;whiteSpace=wrap;html=1;fillColor=#cdeb8b;strokeColor=#36393d;" parent="1" vertex="1">
          <mxGeometry x="-30" y="1620" width="50" height="50" as="geometry" />
        </mxCell>
        <mxCell id="XQ-VizRQmGnHVBo7JK1_-183" value="index&lt;br&gt;disk&lt;br&gt;6" style="rounded=0;whiteSpace=wrap;html=1;" parent="1" vertex="1">
          <mxGeometry x="30" y="1620" width="50" height="50" as="geometry" />
        </mxCell>
        <mxCell id="XQ-VizRQmGnHVBo7JK1_-184" value="index&lt;br&gt;disk&lt;br&gt;7" style="rounded=0;whiteSpace=wrap;html=1;fillColor=#cce5ff;strokeColor=#36393d;" parent="1" vertex="1">
          <mxGeometry x="90" y="1620" width="50" height="50" as="geometry" />
        </mxCell>
        <mxCell id="XQ-VizRQmGnHVBo7JK1_-185" value="index&lt;br&gt;disk&lt;br&gt;8" style="rounded=0;whiteSpace=wrap;html=1;fillColor=#cce5ff;strokeColor=#36393d;" parent="1" vertex="1">
          <mxGeometry x="150" y="1620" width="50" height="50" as="geometry" />
        </mxCell>
        <mxCell id="XQ-VizRQmGnHVBo7JK1_-186" value="data&lt;br&gt;disk&lt;br&gt;1" style="rounded=0;whiteSpace=wrap;html=1;fillColor=#cdeb8b;strokeColor=#36393d;" parent="1" vertex="1">
          <mxGeometry x="-270" y="1560" width="50" height="50" as="geometry" />
        </mxCell>
        <mxCell id="XQ-VizRQmGnHVBo7JK1_-187" value="data&lt;br&gt;disk&lt;br&gt;2" style="rounded=0;whiteSpace=wrap;html=1;fillColor=#cdeb8b;strokeColor=#36393d;" parent="1" vertex="1">
          <mxGeometry x="-210" y="1560" width="50" height="50" as="geometry" />
        </mxCell>
        <mxCell id="XQ-VizRQmGnHVBo7JK1_-188" value="data&lt;br&gt;disk&lt;br&gt;3" style="rounded=0;whiteSpace=wrap;html=1;fillColor=#cdeb8b;strokeColor=#36393d;" parent="1" vertex="1">
          <mxGeometry x="-150" y="1560" width="50" height="50" as="geometry" />
        </mxCell>
        <mxCell id="XQ-VizRQmGnHVBo7JK1_-189" value="data&lt;br&gt;disk&lt;br&gt;4" style="rounded=0;whiteSpace=wrap;html=1;fillColor=#cdeb8b;strokeColor=#36393d;" parent="1" vertex="1">
          <mxGeometry x="-90" y="1560" width="50" height="50" as="geometry" />
        </mxCell>
        <mxCell id="XQ-VizRQmGnHVBo7JK1_-190" value="data&lt;br&gt;disk&lt;br&gt;5" style="rounded=0;whiteSpace=wrap;html=1;" parent="1" vertex="1">
          <mxGeometry x="-30" y="1560" width="50" height="50" as="geometry" />
        </mxCell>
        <mxCell id="XQ-VizRQmGnHVBo7JK1_-191" value="data&lt;br&gt;disk&lt;br&gt;6" style="rounded=0;whiteSpace=wrap;html=1;fillColor=#cce5ff;strokeColor=#36393d;" parent="1" vertex="1">
          <mxGeometry x="30" y="1560" width="50" height="50" as="geometry" />
        </mxCell>
        <mxCell id="XQ-VizRQmGnHVBo7JK1_-192" value="data&lt;br&gt;disk&lt;br&gt;7" style="rounded=0;whiteSpace=wrap;html=1;fillColor=#cce5ff;strokeColor=#36393d;" parent="1" vertex="1">
          <mxGeometry x="90" y="1560" width="50" height="50" as="geometry" />
        </mxCell>
        <mxCell id="XQ-VizRQmGnHVBo7JK1_-193" value="data&lt;br&gt;disk&lt;br&gt;8" style="rounded=0;whiteSpace=wrap;html=1;" parent="1" vertex="1">
          <mxGeometry x="150" y="1560" width="50" height="50" as="geometry" />
        </mxCell>
        <mxCell id="XQ-VizRQmGnHVBo7JK1_-212" value="DATA" style="text;strokeColor=none;fillColor=none;align=left;verticalAlign=middle;spacingLeft=4;spacingRight=4;overflow=hidden;points=[[0,0.5],[1,0.5]];portConstraint=eastwest;rotatable=0;whiteSpace=wrap;html=1;fontColor=#336600;" parent="1" vertex="1">
          <mxGeometry x="-175" y="1500" width="45" height="30" as="geometry" />
        </mxCell>
        <mxCell id="XQ-VizRQmGnHVBo7JK1_-215" value="&lt;font color=&quot;#0000cc&quot;&gt;ERASURE&lt;/font&gt;" style="text;strokeColor=none;fillColor=none;align=left;verticalAlign=middle;spacingLeft=4;spacingRight=4;overflow=hidden;points=[[0,0.5],[1,0.5]];portConstraint=eastwest;rotatable=0;whiteSpace=wrap;html=1;" parent="1" vertex="1">
          <mxGeometry x="120" y="1690" width="70" height="30" as="geometry" />
        </mxCell>
        <mxCell id="XQ-VizRQmGnHVBo7JK1_-233" value="IO Path (WriteBlocks)&lt;br&gt;1. NBS client (nbs-client, nbd-plugin)&lt;br&gt;2. NBS server&lt;br&gt;3. Volume&lt;br&gt;... wait for compaction operations ...&lt;br&gt;4. Write data&lt;br&gt;&amp;nbsp; &amp;nbsp; &amp;gt; Calculate 4 blocks of data + 2 erasure parts&lt;br&gt;&amp;nbsp; &amp;nbsp; &amp;gt; Write to BS group via quorum&lt;br&gt;... wait for compaction operations ...&lt;br style=&quot;border-color: var(--border-color);&quot;&gt;5. Update index&lt;br style=&quot;border-color: var(--border-color);&quot;&gt;&amp;nbsp; &amp;nbsp; &amp;gt; Calculate 4 blocks of data + 2 erasure parts&lt;br style=&quot;border-color: var(--border-color);&quot;&gt;&amp;nbsp; &amp;nbsp; &amp;gt; Write to BS group via quorum&lt;br&gt;6. Send response to a client&lt;br&gt;&amp;nbsp;" style="text;strokeColor=none;fillColor=none;align=left;verticalAlign=middle;spacingLeft=4;spacingRight=4;overflow=hidden;points=[[0,0.5],[1,0.5]];portConstraint=eastwest;rotatable=0;whiteSpace=wrap;html=1;" parent="1" vertex="1">
          <mxGeometry x="-360" y="530" width="210" height="230" as="geometry" />
        </mxCell>
        <mxCell id="XQ-VizRQmGnHVBo7JK1_-237" value="&lt;font color=&quot;#0000cc&quot;&gt;ERASURE&lt;/font&gt;" style="text;strokeColor=none;fillColor=none;align=left;verticalAlign=middle;spacingLeft=4;spacingRight=4;overflow=hidden;points=[[0,0.5],[1,0.5]];portConstraint=eastwest;rotatable=0;whiteSpace=wrap;html=1;" parent="1" vertex="1">
          <mxGeometry y="1500" width="70" height="30" as="geometry" />
        </mxCell>
        <mxCell id="XQ-VizRQmGnHVBo7JK1_-238" value="&lt;font color=&quot;#4d9900&quot;&gt;DATA&lt;/font&gt;" style="text;strokeColor=none;fillColor=none;align=left;verticalAlign=middle;spacingLeft=4;spacingRight=4;overflow=hidden;points=[[0,0.5],[1,0.5]];portConstraint=eastwest;rotatable=0;whiteSpace=wrap;html=1;" parent="1" vertex="1">
          <mxGeometry x="-205" y="1700" width="40" height="30" as="geometry" />
        </mxCell>
        <mxCell id="XQ-VizRQmGnHVBo7JK1_-243" style="edgeStyle=orthogonalEdgeStyle;rounded=0;orthogonalLoop=1;jettySize=auto;html=1;exitX=0.5;exitY=1;exitDx=0;exitDy=0;entryX=0.5;entryY=0;entryDx=0;entryDy=0;startArrow=none;startFill=0;fillColor=#d5e8d4;strokeColor=#82b366;" parent="1" source="XQ-VizRQmGnHVBo7JK1_-241" target="XQ-VizRQmGnHVBo7JK1_-166" edge="1">
          <mxGeometry relative="1" as="geometry" />
        </mxCell>
        <mxCell id="XQ-VizRQmGnHVBo7JK1_-241" value="Service" style="rounded=0;whiteSpace=wrap;html=1;fillColor=#fff2cc;strokeColor=#d6b656;" parent="1" vertex="1">
          <mxGeometry x="-130" y="1120" width="120" height="20" as="geometry" />
        </mxCell>
        <mxCell id="XQ-VizRQmGnHVBo7JK1_-244" value="BSGroup 1" style="text;strokeColor=none;fillColor=none;align=left;verticalAlign=middle;spacingLeft=4;spacingRight=4;overflow=hidden;points=[[0,0.5],[1,0.5]];portConstraint=eastwest;rotatable=0;whiteSpace=wrap;html=1;" parent="1" vertex="1">
          <mxGeometry x="-360" y="1570" width="80" height="30" as="geometry" />
        </mxCell>
        <mxCell id="XQ-VizRQmGnHVBo7JK1_-254" value="{Mount,Unmount}Endpoint&lt;br&gt;{Read,Write,Zero}Blocks" style="text;html=1;strokeColor=none;fillColor=none;align=center;verticalAlign=middle;whiteSpace=wrap;rounded=0;" parent="1" vertex="1">
          <mxGeometry x="-250" y="985" width="150" height="50" as="geometry" />
        </mxCell>
        <mxCell id="XQ-VizRQmGnHVBo7JK1_-256" value="{Kick,Stop}Endpoint" style="text;strokeColor=none;fillColor=none;align=left;verticalAlign=middle;spacingLeft=4;spacingRight=4;overflow=hidden;points=[[0,0.5],[1,0.5]];portConstraint=eastwest;rotatable=0;whiteSpace=wrap;html=1;" parent="1" vertex="1">
          <mxGeometry x="-25" y="925" width="120" height="30" as="geometry" />
        </mxCell>
        <mxCell id="XQ-VizRQmGnHVBo7JK1_-300" value="non-repl&amp;nbsp;IO Path (WriteBlocks)&lt;br&gt;1. NBS Client&lt;br&gt;2. NBS Server&lt;br&gt;3. Volume&lt;br&gt;4. Select Part № based on requested block range&lt;br&gt;5. Send data to selected part&lt;br&gt;6. Send response to client" style="text;html=1;strokeColor=none;fillColor=none;align=left;verticalAlign=middle;whiteSpace=wrap;rounded=0;" parent="1" vertex="1">
          <mxGeometry x="280" y="590" width="170" height="180" as="geometry" />
        </mxCell>
        <mxCell id="XQ-VizRQmGnHVBo7JK1_-221" value="" style="edgeStyle=orthogonalEdgeStyle;rounded=0;orthogonalLoop=1;jettySize=auto;html=1;entryX=0.5;entryY=0;entryDx=0;entryDy=0;fillColor=#d5e8d4;strokeColor=#82b366;" parent="1" source="XQ-VizRQmGnHVBo7JK1_-37" target="XQ-VizRQmGnHVBo7JK1_-188" edge="1">
          <mxGeometry relative="1" as="geometry">
            <Array as="points">
              <mxPoint x="-70" y="1530" />
              <mxPoint x="-125" y="1530" />
            </Array>
          </mxGeometry>
        </mxCell>
        <mxCell id="XQ-VizRQmGnHVBo7JK1_-230" style="edgeStyle=orthogonalEdgeStyle;rounded=0;orthogonalLoop=1;jettySize=auto;html=1;exitX=0.75;exitY=1;exitDx=0;exitDy=0;entryX=0.5;entryY=1;entryDx=0;entryDy=0;fillColor=#d5e8d4;strokeColor=#82b366;" parent="1" source="XQ-VizRQmGnHVBo7JK1_-37" target="XQ-VizRQmGnHVBo7JK1_-182" edge="1">
          <mxGeometry relative="1" as="geometry">
            <Array as="points">
              <mxPoint x="75" y="1480" />
              <mxPoint x="210" y="1480" />
              <mxPoint x="210" y="1730" />
              <mxPoint x="-5" y="1730" />
            </Array>
          </mxGeometry>
        </mxCell>
        <mxCell id="XQ-VizRQmGnHVBo7JK1_-49" value="&lt;span style=&quot;text-align: left;&quot;&gt;NBS Plugin&lt;/span&gt;" style="rounded=0;whiteSpace=wrap;html=1;fillColor=#fff2cc;strokeColor=#d6b656;" parent="1" vertex="1">
          <mxGeometry x="-350" y="880" width="80" height="20" as="geometry" />
        </mxCell>
        <mxCell id="CJ0fTV0hN7LeKu4SsA6d-8" style="edgeStyle=orthogonalEdgeStyle;rounded=0;orthogonalLoop=1;jettySize=auto;html=1;exitX=0.5;exitY=1;exitDx=0;exitDy=0;entryX=0;entryY=0.5;entryDx=0;entryDy=0;" parent="1" source="XQ-VizRQmGnHVBo7JK1_-49" target="XQ-VizRQmGnHVBo7JK1_-129" edge="1">
          <mxGeometry relative="1" as="geometry">
            <mxPoint x="-270" y="926.6599999999999" as="sourcePoint" />
          </mxGeometry>
        </mxCell>
        <mxCell id="CJ0fTV0hN7LeKu4SsA6d-9" style="edgeStyle=orthogonalEdgeStyle;rounded=0;orthogonalLoop=1;jettySize=auto;html=1;exitX=0.5;exitY=1;exitDx=0;exitDy=0;startArrow=none;startFill=0;entryX=0.25;entryY=0;entryDx=0;entryDy=0;" parent="1" source="XQ-VizRQmGnHVBo7JK1_-129" target="XQ-VizRQmGnHVBo7JK1_-241" edge="1">
          <mxGeometry relative="1" as="geometry">
            <mxPoint x="-70" y="1100" as="targetPoint" />
            <Array as="points">
              <mxPoint x="-210" y="980" />
              <mxPoint x="-100" y="980" />
            </Array>
          </mxGeometry>
        </mxCell>
        <mxCell id="XQ-VizRQmGnHVBo7JK1_-129" value="nbd socket" style="rounded=0;whiteSpace=wrap;html=1;fillColor=#d5e8d4;strokeColor=#82b366;" parent="1" vertex="1">
          <mxGeometry x="-240" y="913.33" width="60" height="26.67" as="geometry" />
        </mxCell>
        <mxCell id="1gknGNaQA-s_sPEbhEw9-9" style="edgeStyle=orthogonalEdgeStyle;rounded=0;orthogonalLoop=1;jettySize=auto;html=1;exitX=0.5;exitY=1;exitDx=0;exitDy=0;entryX=0.75;entryY=0;entryDx=0;entryDy=0;" parent="1" source="XQ-VizRQmGnHVBo7JK1_-139" target="XQ-VizRQmGnHVBo7JK1_-241" edge="1">
          <mxGeometry relative="1" as="geometry" />
        </mxCell>
        <mxCell id="XQ-VizRQmGnHVBo7JK1_-139" value="&lt;font style=&quot;font-size: 10px;&quot;&gt;vhost-user&lt;/font&gt;" style="rounded=0;whiteSpace=wrap;html=1;fillColor=#d5e8d4;strokeColor=#82b366;" parent="1" vertex="1">
          <mxGeometry x="-70" y="1080" width="55" height="20" as="geometry" />
        </mxCell>
        <mxCell id="CJ0fTV0hN7LeKu4SsA6d-4" style="edgeStyle=orthogonalEdgeStyle;rounded=0;orthogonalLoop=1;jettySize=auto;html=1;exitX=0.5;exitY=1;exitDx=0;exitDy=0;entryX=0.5;entryY=0;entryDx=0;entryDy=0;startArrow=none;startFill=0;" parent="1" source="XQ-VizRQmGnHVBo7JK1_-39" target="XQ-VizRQmGnHVBo7JK1_-129" edge="1">
          <mxGeometry relative="1" as="geometry" />
        </mxCell>
        <mxCell id="CJ0fTV0hN7LeKu4SsA6d-5" style="edgeStyle=orthogonalEdgeStyle;rounded=0;orthogonalLoop=1;jettySize=auto;html=1;entryX=0.5;entryY=0;entryDx=0;entryDy=0;startArrow=none;startFill=0;" parent="1" target="XQ-VizRQmGnHVBo7JK1_-139" edge="1">
          <mxGeometry relative="1" as="geometry">
            <mxPoint x="-110" y="890" as="sourcePoint" />
            <Array as="points">
              <mxPoint x="-90" y="890" />
              <mxPoint x="-90" y="940" />
              <mxPoint x="-42" y="940" />
            </Array>
          </mxGeometry>
        </mxCell>
        <mxCell id="h9a8TzWPjmUv9lOQA41A-1" value="" style="group" parent="1" vertex="1" connectable="0">
          <mxGeometry x="1110" y="760" width="520" height="640" as="geometry" />
        </mxCell>
        <mxCell id="XQ-VizRQmGnHVBo7JK1_-438" value="" style="rounded=0;whiteSpace=wrap;html=1;align=left;" parent="h9a8TzWPjmUv9lOQA41A-1" vertex="1">
          <mxGeometry width="520" height="620" as="geometry" />
        </mxCell>
        <mxCell id="XQ-VizRQmGnHVBo7JK1_-439" value="local disks&lt;div&gt;or&lt;/div&gt;&lt;div&gt;fast path disks&lt;/div&gt;" style="text;strokeColor=none;fillColor=none;align=left;verticalAlign=middle;spacingLeft=4;spacingRight=4;overflow=hidden;points=[[0,0.5],[1,0.5]];portConstraint=eastwest;rotatable=0;whiteSpace=wrap;html=1;" parent="h9a8TzWPjmUv9lOQA41A-1" vertex="1">
          <mxGeometry width="90" height="50" as="geometry" />
        </mxCell>
        <mxCell id="XQ-VizRQmGnHVBo7JK1_-444" value="" style="rounded=0;whiteSpace=wrap;html=1;fillColor=#ffe6cc;strokeColor=#d79b00;" parent="h9a8TzWPjmUv9lOQA41A-1" vertex="1">
          <mxGeometry y="161.13" width="110" height="158.87" as="geometry" />
        </mxCell>
        <mxCell id="XQ-VizRQmGnHVBo7JK1_-445" value="nbsd" style="text;strokeColor=none;fillColor=none;align=left;verticalAlign=middle;spacingLeft=4;spacingRight=4;overflow=hidden;points=[[0,0.5],[1,0.5]];portConstraint=eastwest;rotatable=0;whiteSpace=wrap;html=1;" parent="h9a8TzWPjmUv9lOQA41A-1" vertex="1">
          <mxGeometry y="161.13" width="40" height="18.87" as="geometry" />
        </mxCell>
        <mxCell id="XQ-VizRQmGnHVBo7JK1_-446" value="" style="rounded=0;whiteSpace=wrap;html=1;fillColor=#ffe6cc;strokeColor=#d79b00;" parent="h9a8TzWPjmUv9lOQA41A-1" vertex="1">
          <mxGeometry y="352.9200000000001" width="520" height="37.08" as="geometry" />
        </mxCell>
        <mxCell id="XQ-VizRQmGnHVBo7JK1_-447" value="nbs-vhost-server" style="text;strokeColor=none;fillColor=none;align=left;verticalAlign=middle;spacingLeft=4;spacingRight=4;overflow=hidden;points=[[0,0.5],[1,0.5]];portConstraint=eastwest;rotatable=0;whiteSpace=wrap;html=1;" parent="h9a8TzWPjmUv9lOQA41A-1" vertex="1">
          <mxGeometry x="419.2099999999999" y="350" width="104.41" height="20" as="geometry" />
        </mxCell>
        <mxCell id="XQ-VizRQmGnHVBo7JK1_-448" value="IO request" style="text;strokeColor=none;fillColor=none;align=left;verticalAlign=middle;spacingLeft=4;spacingRight=4;overflow=hidden;points=[[0,0.5],[1,0.5]];portConstraint=eastwest;rotatable=0;whiteSpace=wrap;html=1;" parent="h9a8TzWPjmUv9lOQA41A-1" vertex="1">
          <mxGeometry x="225.09" y="42.72999999999994" width="105" height="34.53" as="geometry" />
        </mxCell>
        <mxCell id="XQ-VizRQmGnHVBo7JK1_-450" value="Volume" style="rounded=0;whiteSpace=wrap;html=1;fillColor=#dae8fc;strokeColor=#6c8ebf;" parent="h9a8TzWPjmUv9lOQA41A-1" vertex="1">
          <mxGeometry x="6.119019607843057" y="243.01867924528304" width="88.70588235294117" height="23.0188679245283" as="geometry" />
        </mxCell>
        <mxCell id="pinVTupT54JZGEzq2_oa-168" style="edgeStyle=orthogonalEdgeStyle;rounded=0;orthogonalLoop=1;jettySize=auto;html=1;exitX=0.75;exitY=1;exitDx=0;exitDy=0;entryX=0.75;entryY=0;entryDx=0;entryDy=0;fillColor=#dae8fc;strokeColor=#6c8ebf;" parent="h9a8TzWPjmUv9lOQA41A-1" source="XQ-VizRQmGnHVBo7JK1_-452" target="XQ-VizRQmGnHVBo7JK1_-450" edge="1">
          <mxGeometry relative="1" as="geometry" />
        </mxCell>
        <mxCell id="XQ-VizRQmGnHVBo7JK1_-452" value="Service" style="rounded=0;whiteSpace=wrap;html=1;fillColor=#dae8fc;strokeColor=#6c8ebf;" parent="h9a8TzWPjmUv9lOQA41A-1" vertex="1">
          <mxGeometry x="6.114313725490163" y="190.00150943396227" width="88.70588235294117" height="23.0188679245283" as="geometry" />
        </mxCell>
        <mxCell id="XQ-VizRQmGnHVBo7JK1_-455" value="" style="rounded=0;whiteSpace=wrap;html=1;fillColor=#fff2cc;strokeColor=#d6b656;" parent="h9a8TzWPjmUv9lOQA41A-1" vertex="1">
          <mxGeometry y="277.17" width="100" height="32.83" as="geometry" />
        </mxCell>
        <mxCell id="XQ-VizRQmGnHVBo7JK1_-456" value="non repl partition" style="text;strokeColor=none;fillColor=none;align=left;verticalAlign=middle;spacingLeft=4;spacingRight=4;overflow=hidden;points=[[0,0.5],[1,0.5]];portConstraint=eastwest;rotatable=0;whiteSpace=wrap;html=1;" parent="h9a8TzWPjmUv9lOQA41A-1" vertex="1">
          <mxGeometry y="277.1696226415095" width="112.15686274509804" height="28.77358490566038" as="geometry" />
        </mxCell>
        <mxCell id="XQ-VizRQmGnHVBo7JK1_-462" value="" style="rounded=0;whiteSpace=wrap;html=1;" parent="h9a8TzWPjmUv9lOQA41A-1" vertex="1">
          <mxGeometry x="195" y="17.12" width="60" height="25.61" as="geometry" />
        </mxCell>
        <mxCell id="XQ-VizRQmGnHVBo7JK1_-465" value="QEMU" style="text;html=1;strokeColor=none;fillColor=none;align=center;verticalAlign=middle;whiteSpace=wrap;rounded=0;" parent="h9a8TzWPjmUv9lOQA41A-1" vertex="1">
          <mxGeometry x="202.74" y="19.85679245283015" width="44.51" height="20.141509433962263" as="geometry" />
        </mxCell>
        <mxCell id="XQ-VizRQmGnHVBo7JK1_-474" value="NVMe namespace&lt;br&gt;data disk&lt;br&gt;1" style="shape=cylinder3;whiteSpace=wrap;html=1;boundedLbl=1;backgroundOutline=1;size=15;" parent="h9a8TzWPjmUv9lOQA41A-1" vertex="1">
          <mxGeometry x="42.15999999999997" y="470" width="70" height="90" as="geometry" />
        </mxCell>
        <mxCell id="XQ-VizRQmGnHVBo7JK1_-476" value="data disk&lt;br&gt;2" style="shape=cylinder3;whiteSpace=wrap;html=1;boundedLbl=1;backgroundOutline=1;size=15;fillColor=#d5e8d4;strokeColor=#82b366;" parent="h9a8TzWPjmUv9lOQA41A-1" vertex="1">
          <mxGeometry x="345.5899999999999" y="480" width="70" height="90" as="geometry" />
        </mxCell>
        <mxCell id="KwOvU0mtkp5uVqpWCD7b-2" value="AIO" style="rounded=0;whiteSpace=wrap;html=1;fillColor=#dae8fc;strokeColor=#6c8ebf;" parent="h9a8TzWPjmUv9lOQA41A-1" vertex="1">
          <mxGeometry x="326.8843137254902" y="370" width="88.70588235294117" height="20" as="geometry" />
        </mxCell>
        <mxCell id="XQ-VizRQmGnHVBo7JK1_-481" style="edgeStyle=orthogonalEdgeStyle;rounded=0;orthogonalLoop=1;jettySize=auto;html=1;exitX=0.5;exitY=1;exitDx=0;exitDy=0;fillColor=#d5e8d4;strokeColor=#82b366;entryX=0.5;entryY=0;entryDx=0;entryDy=0;entryPerimeter=0;" parent="h9a8TzWPjmUv9lOQA41A-1" source="XQ-VizRQmGnHVBo7JK1_-462" target="XQ-VizRQmGnHVBo7JK1_-476" edge="1">
          <mxGeometry relative="1" as="geometry">
            <mxPoint x="260" y="350" as="targetPoint" />
            <Array as="points">
              <mxPoint x="225" y="110" />
              <mxPoint x="381" y="110" />
            </Array>
            <mxPoint x="225" y="92.07276729559771" as="sourcePoint" />
          </mxGeometry>
        </mxCell>
        <mxCell id="MDL0eDjs6nPppl6UNTQ7-13" value="fast data path&lt;div&gt;&lt;span style=&quot;background-color: initial;&quot;&gt;vhost only&lt;/span&gt;&lt;/div&gt;" style="text;html=1;align=center;verticalAlign=middle;whiteSpace=wrap;rounded=0;" parent="h9a8TzWPjmUv9lOQA41A-1" vertex="1">
          <mxGeometry x="260" y="14.93" width="159.21" height="30" as="geometry" />
        </mxCell>
        <mxCell id="MDL0eDjs6nPppl6UNTQ7-61" value="IO requests go through vhost server" style="text;html=1;align=center;verticalAlign=middle;whiteSpace=wrap;rounded=0;" parent="h9a8TzWPjmUv9lOQA41A-1" vertex="1">
          <mxGeometry x="330.0899999999999" y="70" width="109.91" height="30" as="geometry" />
        </mxCell>
        <mxCell id="MDL0eDjs6nPppl6UNTQ7-63" style="edgeStyle=orthogonalEdgeStyle;rounded=0;orthogonalLoop=1;jettySize=auto;html=1;exitX=1;exitY=0.5;exitDx=0;exitDy=0;entryX=0.633;entryY=0.029;entryDx=0;entryDy=0;entryPerimeter=0;fillColor=#dae8fc;strokeColor=#6c8ebf;" parent="h9a8TzWPjmUv9lOQA41A-1" source="XQ-VizRQmGnHVBo7JK1_-444" target="XQ-VizRQmGnHVBo7JK1_-446" edge="1">
          <mxGeometry relative="1" as="geometry">
            <Array as="points" />
          </mxGeometry>
        </mxCell>
        <mxCell id="MDL0eDjs6nPppl6UNTQ7-64" value="nbsd starts&lt;div&gt;vhost server&lt;/div&gt;" style="text;html=1;align=center;verticalAlign=middle;whiteSpace=wrap;rounded=0;" parent="h9a8TzWPjmUv9lOQA41A-1" vertex="1">
          <mxGeometry x="160" y="221.79" width="76.88" height="37.55" as="geometry" />
        </mxCell>
        <mxCell id="MDL0eDjs6nPppl6UNTQ7-65" value="RDMA (custom)" style="rounded=0;whiteSpace=wrap;html=1;fillColor=#f8cecc;strokeColor=#b85450;" parent="h9a8TzWPjmUv9lOQA41A-1" vertex="1">
          <mxGeometry x="380" y="610" width="110" height="20" as="geometry" />
        </mxCell>
        <mxCell id="MDL0eDjs6nPppl6UNTQ7-8" value="disks to write on are&lt;div&gt;determined by hash function&lt;/div&gt;" style="text;html=1;align=center;verticalAlign=middle;whiteSpace=wrap;rounded=0;" parent="1" vertex="1">
          <mxGeometry x="-70" y="1450" width="145" height="50" as="geometry" />
        </mxCell>
        <mxCell id="MDL0eDjs6nPppl6UNTQ7-9" value="BSGroup 2" style="text;strokeColor=none;fillColor=none;align=left;verticalAlign=middle;spacingLeft=4;spacingRight=4;overflow=hidden;points=[[0,0.5],[1,0.5]];portConstraint=eastwest;rotatable=0;whiteSpace=wrap;html=1;" parent="1" vertex="1">
          <mxGeometry x="-360" y="1630" width="80" height="30" as="geometry" />
        </mxCell>
        <mxCell id="KwOvU0mtkp5uVqpWCD7b-14" value="" style="group" parent="1" vertex="1" connectable="0">
          <mxGeometry x="1460" y="1430" width="125.59000000000003" height="156.84" as="geometry" />
        </mxCell>
        <mxCell id="KwOvU0mtkp5uVqpWCD7b-15" value="data disk&lt;br&gt;3" style="shape=cylinder3;whiteSpace=wrap;html=1;boundedLbl=1;backgroundOutline=1;size=15;" parent="KwOvU0mtkp5uVqpWCD7b-14" vertex="1">
          <mxGeometry x="48" y="52.279999999999994" width="72" height="104.55999999999999" as="geometry" />
        </mxCell>
        <mxCell id="KwOvU0mtkp5uVqpWCD7b-18" value="" style="rounded=0;whiteSpace=wrap;html=1;fillColor=#ffe6cc;strokeColor=#d79b00;" parent="1" vertex="1">
          <mxGeometry x="1460.09" y="1410" width="159.91" height="54.74" as="geometry" />
        </mxCell>
        <mxCell id="KwOvU0mtkp5uVqpWCD7b-19" value="rdma" style="rounded=0;whiteSpace=wrap;html=1;fillColor=#dae8fc;strokeColor=#6c8ebf;" parent="1" vertex="1">
          <mxGeometry x="1460.0943137254903" y="1410" width="88.70588235294117" height="20" as="geometry" />
        </mxCell>
        <mxCell id="KwOvU0mtkp5uVqpWCD7b-20" value="nbs-disk-agent" style="text;strokeColor=none;fillColor=none;align=left;verticalAlign=middle;spacingLeft=4;spacingRight=4;overflow=hidden;points=[[0,0.5],[1,0.5]];portConstraint=eastwest;rotatable=0;whiteSpace=wrap;html=1;fontSize=11;" parent="1" vertex="1">
          <mxGeometry x="1541.0000000000002" y="1422.37" width="90" height="30" as="geometry" />
        </mxCell>
        <mxCell id="KwOvU0mtkp5uVqpWCD7b-21" value="AIO" style="rounded=0;whiteSpace=wrap;html=1;fillColor=#dae8fc;strokeColor=#6c8ebf;" parent="1" vertex="1">
          <mxGeometry x="1460.0943137254903" y="1444.74" width="88.70588235294117" height="20" as="geometry" />
        </mxCell>
        <mxCell id="KwOvU0mtkp5uVqpWCD7b-23" style="edgeStyle=orthogonalEdgeStyle;rounded=0;orthogonalLoop=1;jettySize=auto;html=1;exitX=1;exitY=0.5;exitDx=0;exitDy=0;entryX=0.5;entryY=0;entryDx=0;entryDy=0;entryPerimeter=0;fillColor=#d5e8d4;strokeColor=#82b366;" parent="1" source="XQ-VizRQmGnHVBo7JK1_-462" target="KwOvU0mtkp5uVqpWCD7b-15" edge="1">
          <mxGeometry relative="1" as="geometry">
            <Array as="points">
              <mxPoint x="1544" y="790" />
            </Array>
            <mxPoint x="1335" y="852.0727672955977" as="sourcePoint" />
          </mxGeometry>
        </mxCell>
        <mxCell id="MDL0eDjs6nPppl6UNTQ7-67" value="" style="rounded=0;whiteSpace=wrap;html=1;dashed=1;" parent="1" vertex="1">
          <mxGeometry x="930" y="270" width="280" height="380" as="geometry" />
        </mxCell>
        <mxCell id="MDL0eDjs6nPppl6UNTQ7-68" value="Legend" style="text;html=1;align=center;verticalAlign=middle;whiteSpace=wrap;rounded=0;" parent="1" vertex="1">
          <mxGeometry x="930" y="270" width="50" height="20" as="geometry" />
        </mxCell>
        <mxCell id="MDL0eDjs6nPppl6UNTQ7-69" value="internal component" style="rounded=0;whiteSpace=wrap;html=1;fillColor=#dae8fc;strokeColor=#6c8ebf;" parent="1" vertex="1">
          <mxGeometry x="940" y="420" width="120" height="20" as="geometry" />
        </mxCell>
        <mxCell id="MDL0eDjs6nPppl6UNTQ7-70" value="" style="rounded=0;whiteSpace=wrap;html=1;align=right;" parent="1" vertex="1">
          <mxGeometry x="940" y="300" width="120" height="60" as="geometry" />
        </mxCell>
        <mxCell id="MDL0eDjs6nPppl6UNTQ7-71" value="&lt;span style=&quot;text-align: right; font-size: 11px;&quot;&gt;Physical host with services inside&lt;/span&gt;" style="text;html=1;align=center;verticalAlign=middle;whiteSpace=wrap;rounded=0;fontSize=11;" parent="1" vertex="1">
          <mxGeometry x="960" y="300" width="100" height="30" as="geometry" />
        </mxCell>
        <mxCell id="MDL0eDjs6nPppl6UNTQ7-74" style="edgeStyle=orthogonalEdgeStyle;rounded=0;orthogonalLoop=1;jettySize=auto;html=1;exitX=1;exitY=0.5;exitDx=0;exitDy=0;entryX=0;entryY=0.5;entryDx=0;entryDy=0;" parent="1" source="MDL0eDjs6nPppl6UNTQ7-72" target="MDL0eDjs6nPppl6UNTQ7-73" edge="1">
          <mxGeometry relative="1" as="geometry" />
        </mxCell>
        <mxCell id="MDL0eDjs6nPppl6UNTQ7-72" value="" style="rounded=0;whiteSpace=wrap;html=1;fillColor=#ffe6cc;strokeColor=#d79b00;" parent="1" vertex="1">
          <mxGeometry x="940" y="330" width="30" height="30" as="geometry" />
        </mxCell>
        <mxCell id="MDL0eDjs6nPppl6UNTQ7-73" value="" style="rounded=0;whiteSpace=wrap;html=1;fillColor=#fff2cc;strokeColor=#d6b656;" parent="1" vertex="1">
          <mxGeometry x="1030" y="330" width="30" height="30" as="geometry" />
        </mxCell>
        <mxCell id="MDL0eDjs6nPppl6UNTQ7-75" value="linux process" style="rounded=0;whiteSpace=wrap;html=1;fillColor=#ffe6cc;strokeColor=#d79b00;" parent="1" vertex="1">
          <mxGeometry x="940" y="370" width="120" height="20" as="geometry" />
        </mxCell>
        <mxCell id="MDL0eDjs6nPppl6UNTQ7-76" value="internal component" style="rounded=0;whiteSpace=wrap;html=1;fillColor=#fff2cc;strokeColor=#d6b656;" parent="1" vertex="1">
          <mxGeometry x="940" y="400" width="120" height="20" as="geometry" />
        </mxCell>
        <mxCell id="MDL0eDjs6nPppl6UNTQ7-77" value="&lt;b&gt;or&lt;/b&gt; - only one way to work (protocol or component)" style="rounded=0;whiteSpace=wrap;html=1;fillColor=#e1d5e7;strokeColor=#9673a6;" parent="1" vertex="1">
          <mxGeometry x="939.23" y="450" width="120.77" height="40" as="geometry" />
        </mxCell>
        <mxCell id="MDL0eDjs6nPppl6UNTQ7-78" value="Component out of scope of this scheme" style="rounded=0;whiteSpace=wrap;html=1;" parent="1" vertex="1">
          <mxGeometry x="1080" y="300" width="120" height="60" as="geometry" />
        </mxCell>
        <mxCell id="MDL0eDjs6nPppl6UNTQ7-79" value="protocol" style="rounded=0;whiteSpace=wrap;html=1;fillColor=#f8cecc;strokeColor=#b85450;" parent="1" vertex="1">
          <mxGeometry x="939.23" y="500" width="120.77" height="20" as="geometry" />
        </mxCell>
        <mxCell id="MDL0eDjs6nPppl6UNTQ7-80" value="YDB tablets" style="rounded=0;whiteSpace=wrap;html=1;fillColor=#b0e3e6;strokeColor=#0e8088;" parent="1" vertex="1">
          <mxGeometry x="940" y="560" width="120" height="20" as="geometry" />
        </mxCell>
        <mxCell id="MDL0eDjs6nPppl6UNTQ7-86" style="edgeStyle=orthogonalEdgeStyle;rounded=0;orthogonalLoop=1;jettySize=auto;html=1;exitX=1;exitY=0;exitDx=0;exitDy=0;entryX=0;entryY=0;entryDx=0;entryDy=0;" parent="1" source="MDL0eDjs6nPppl6UNTQ7-84" target="MDL0eDjs6nPppl6UNTQ7-85" edge="1">
          <mxGeometry relative="1" as="geometry">
            <Array as="points">
              <mxPoint x="1150" y="370" />
              <mxPoint x="1150" y="370" />
            </Array>
          </mxGeometry>
        </mxCell>
        <mxCell id="MDL0eDjs6nPppl6UNTQ7-84" value="" style="rounded=0;whiteSpace=wrap;html=1;" parent="1" vertex="1">
          <mxGeometry x="1080" y="370" width="10" height="180" as="geometry" />
        </mxCell>
        <mxCell id="MDL0eDjs6nPppl6UNTQ7-85" value="" style="rounded=0;whiteSpace=wrap;html=1;" parent="1" vertex="1">
          <mxGeometry x="1190" y="370" width="10" height="180" as="geometry" />
        </mxCell>
        <mxCell id="MDL0eDjs6nPppl6UNTQ7-89" value="chosen data path" style="text;html=1;align=center;verticalAlign=middle;whiteSpace=wrap;rounded=0;fontColor=#82B366;" parent="1" vertex="1">
          <mxGeometry x="1090" y="450" width="100" height="10" as="geometry" />
        </mxCell>
        <mxCell id="MDL0eDjs6nPppl6UNTQ7-92" value="possible data path" style="text;html=1;align=center;verticalAlign=middle;whiteSpace=wrap;rounded=0;" parent="1" vertex="1">
          <mxGeometry x="1090" y="372.5" width="100" height="15" as="geometry" />
        </mxCell>
        <mxCell id="MDL0eDjs6nPppl6UNTQ7-95" value="control plane&lt;div&gt;&lt;span style=&quot;background-color: initial;&quot;&gt;data path&lt;/span&gt;&lt;/div&gt;" style="text;html=1;align=center;verticalAlign=middle;whiteSpace=wrap;rounded=0;fontColor=#6C8EBF;" parent="1" vertex="1">
          <mxGeometry x="1090" y="530" width="100" height="10" as="geometry" />
        </mxCell>
        <mxCell id="MDL0eDjs6nPppl6UNTQ7-97" style="edgeStyle=orthogonalEdgeStyle;rounded=0;orthogonalLoop=1;jettySize=auto;html=1;fillColor=#d5e8d4;strokeColor=#82b366;" parent="1" edge="1">
          <mxGeometry relative="1" as="geometry">
            <mxPoint x="1090" y="440" as="sourcePoint" />
            <mxPoint x="1190" y="440" as="targetPoint" />
            <Array as="points">
              <mxPoint x="1190" y="440" />
            </Array>
          </mxGeometry>
        </mxCell>
        <mxCell id="MDL0eDjs6nPppl6UNTQ7-99" style="edgeStyle=orthogonalEdgeStyle;rounded=0;orthogonalLoop=1;jettySize=auto;html=1;exitX=1.123;exitY=0.85;exitDx=0;exitDy=0;entryX=0.046;entryY=0.851;entryDx=0;entryDy=0;entryPerimeter=0;exitPerimeter=0;fillColor=#dae8fc;strokeColor=#6c8ebf;" parent="1" source="MDL0eDjs6nPppl6UNTQ7-84" target="MDL0eDjs6nPppl6UNTQ7-85" edge="1">
          <mxGeometry relative="1" as="geometry" />
        </mxCell>
        <mxCell id="MDL0eDjs6nPppl6UNTQ7-100" value="" style="rounded=0;whiteSpace=wrap;html=1;fillColor=#dae8fc;strokeColor=#6c8ebf;" parent="1" vertex="1">
          <mxGeometry x="1130" y="575" width="20" height="20" as="geometry" />
        </mxCell>
        <mxCell id="MDL0eDjs6nPppl6UNTQ7-104" value="" style="rounded=0;whiteSpace=wrap;html=1;" parent="1" vertex="1">
          <mxGeometry x="1190" y="575" width="10" height="20" as="geometry" />
        </mxCell>
        <mxCell id="MDL0eDjs6nPppl6UNTQ7-106" style="edgeStyle=orthogonalEdgeStyle;rounded=0;orthogonalLoop=1;jettySize=auto;html=1;exitX=1;exitY=0.5;exitDx=0;exitDy=0;entryX=0;entryY=0.5;entryDx=0;entryDy=0;" parent="1" source="MDL0eDjs6nPppl6UNTQ7-105" target="MDL0eDjs6nPppl6UNTQ7-104" edge="1">
          <mxGeometry relative="1" as="geometry" />
        </mxCell>
        <mxCell id="MDL0eDjs6nPppl6UNTQ7-105" value="" style="rounded=0;whiteSpace=wrap;html=1;fontStyle=0" parent="1" vertex="1">
          <mxGeometry x="1080" y="575" width="10" height="20" as="geometry" />
        </mxCell>
        <mxCell id="MDL0eDjs6nPppl6UNTQ7-107" value="data goes through&lt;div&gt;component&lt;/div&gt;" style="text;html=1;align=center;verticalAlign=middle;whiteSpace=wrap;rounded=0;" parent="1" vertex="1">
          <mxGeometry x="1090" y="610" width="100" height="15" as="geometry" />
        </mxCell>
        <mxCell id="MDL0eDjs6nPppl6UNTQ7-108" value="YDB processes" style="rounded=0;whiteSpace=wrap;html=1;fillColor=#f9f7ed;strokeColor=#36393d;" parent="1" vertex="1">
          <mxGeometry x="940" y="540" width="120" height="20" as="geometry" />
        </mxCell>
        <mxCell id="MDL0eDjs6nPppl6UNTQ7-112" style="edgeStyle=orthogonalEdgeStyle;rounded=0;orthogonalLoop=1;jettySize=auto;html=1;exitX=0.5;exitY=1;exitDx=0;exitDy=0;entryX=0.5;entryY=0;entryDx=0;entryDy=0;fillColor=#d5e8d4;strokeColor=none;startArrow=none;startFill=0;" parent="1" source="MDL0eDjs6nPppl6UNTQ7-111" target="XQ-VizRQmGnHVBo7JK1_-169" edge="1">
          <mxGeometry relative="1" as="geometry" />
        </mxCell>
        <mxCell id="MDL0eDjs6nPppl6UNTQ7-120" style="edgeStyle=orthogonalEdgeStyle;rounded=0;orthogonalLoop=1;jettySize=auto;html=1;exitX=0.5;exitY=1;exitDx=0;exitDy=0;fillColor=#d5e8d4;strokeColor=#82b366;" parent="1" source="MDL0eDjs6nPppl6UNTQ7-111" edge="1">
          <mxGeometry relative="1" as="geometry">
            <mxPoint x="-69" y="1260" as="targetPoint" />
            <Array as="points">
              <mxPoint x="-145" y="1240" />
              <mxPoint x="-69" y="1240" />
              <mxPoint x="-69" y="1260" />
            </Array>
          </mxGeometry>
        </mxCell>
        <mxCell id="MDL0eDjs6nPppl6UNTQ7-111" value="Partition #" style="rounded=0;whiteSpace=wrap;html=1;fillColor=#fff2cc;strokeColor=#d6b656;" parent="1" vertex="1">
          <mxGeometry x="-205" y="1210" width="120" height="20" as="geometry" />
        </mxCell>
        <mxCell id="MDL0eDjs6nPppl6UNTQ7-113" value="If disk is large we will use&amp;nbsp;&lt;span style=&quot;background-color: initial;&quot;&gt;multiple partitions to speed it up, sending&amp;nbsp; requests in&amp;nbsp;&lt;/span&gt;parallel" style="text;html=1;align=center;verticalAlign=middle;whiteSpace=wrap;rounded=0;" parent="1" vertex="1">
          <mxGeometry x="82.5" y="1190" width="107.5" height="70" as="geometry" />
        </mxCell>
        <mxCell id="MDL0eDjs6nPppl6UNTQ7-119" style="edgeStyle=orthogonalEdgeStyle;rounded=0;orthogonalLoop=1;jettySize=auto;html=1;exitX=0.5;exitY=1;exitDx=0;exitDy=0;fillColor=#d5e8d4;strokeColor=#82b366;" parent="1" source="MDL0eDjs6nPppl6UNTQ7-114" edge="1">
          <mxGeometry relative="1" as="geometry">
            <mxPoint x="-69" y="1260" as="targetPoint" />
            <Array as="points">
              <mxPoint x="10" y="1240" />
              <mxPoint x="-69" y="1240" />
              <mxPoint x="-69" y="1260" />
            </Array>
          </mxGeometry>
        </mxCell>
        <mxCell id="MDL0eDjs6nPppl6UNTQ7-114" value="Partition #" style="rounded=0;whiteSpace=wrap;html=1;fillColor=#fff2cc;strokeColor=#d6b656;" parent="1" vertex="1">
          <mxGeometry x="-50" y="1210" width="120" height="20" as="geometry" />
        </mxCell>
        <mxCell id="pinVTupT54JZGEzq2_oa-56" value="" style="group;align=left;verticalAlign=bottom;fontSize=11;" parent="1" vertex="1" connectable="0">
          <mxGeometry x="290" y="1220" width="530" height="330" as="geometry" />
        </mxCell>
        <mxCell id="pinVTupT54JZGEzq2_oa-57" value="" style="rounded=0;whiteSpace=wrap;html=1;align=left;" parent="pinVTupT54JZGEzq2_oa-56" vertex="1">
          <mxGeometry x="-10" y="-10" width="530" height="320" as="geometry" />
        </mxCell>
        <mxCell id="pinVTupT54JZGEzq2_oa-58" value="" style="rounded=0;whiteSpace=wrap;html=1;fillColor=#ffe6cc;strokeColor=#d79b00;" parent="pinVTupT54JZGEzq2_oa-56" vertex="1">
          <mxGeometry x="150" width="360" height="100" as="geometry" />
        </mxCell>
        <mxCell id="pinVTupT54JZGEzq2_oa-59" value="HDD 1" style="shape=cylinder3;whiteSpace=wrap;html=1;boundedLbl=1;backgroundOutline=1;size=15;fillColor=#d5e8d4;strokeColor=#82b366;fontSize=12;verticalAlign=middle;" parent="pinVTupT54JZGEzq2_oa-56" vertex="1">
          <mxGeometry x="33.13" y="118.41" width="76.87" height="61.59" as="geometry" />
        </mxCell>
        <mxCell id="pinVTupT54JZGEzq2_oa-60" value="HDD 2" style="shape=cylinder3;whiteSpace=wrap;html=1;boundedLbl=1;backgroundOutline=1;size=15;fontSize=12;verticalAlign=middle;" parent="pinVTupT54JZGEzq2_oa-56" vertex="1">
          <mxGeometry x="150" y="117.62000000000012" width="76.87" height="61.59" as="geometry" />
        </mxCell>
        <mxCell id="pinVTupT54JZGEzq2_oa-61" value="HDD N" style="shape=cylinder3;whiteSpace=wrap;html=1;boundedLbl=1;backgroundOutline=1;size=15;fontSize=12;verticalAlign=middle;" parent="pinVTupT54JZGEzq2_oa-56" vertex="1">
          <mxGeometry x="420" y="117.62000000000012" width="76.87" height="61.59" as="geometry" />
        </mxCell>
        <mxCell id="pinVTupT54JZGEzq2_oa-62" value="" style="endArrow=none;dashed=1;html=1;dashPattern=1 3;strokeWidth=2;rounded=0;" parent="pinVTupT54JZGEzq2_oa-56" edge="1">
          <mxGeometry width="50" height="50" relative="1" as="geometry">
            <mxPoint x="310" y="150" as="sourcePoint" />
            <mxPoint x="331" y="150" as="targetPoint" />
            <Array as="points">
              <mxPoint x="310" y="150" />
            </Array>
          </mxGeometry>
        </mxCell>
        <mxCell id="pinVTupT54JZGEzq2_oa-63" value="NVMe 1" style="shape=cylinder3;whiteSpace=wrap;html=1;boundedLbl=1;backgroundOutline=1;size=15;fillColor=#d5e8d4;strokeColor=#82b366;fontSize=12;verticalAlign=middle;" parent="pinVTupT54JZGEzq2_oa-56" vertex="1">
          <mxGeometry x="33.129999999999995" y="199.99999999999997" width="76.87" height="61.59" as="geometry" />
        </mxCell>
        <mxCell id="pinVTupT54JZGEzq2_oa-64" value="NVMe 2" style="shape=cylinder3;whiteSpace=wrap;html=1;boundedLbl=1;backgroundOutline=1;size=15;fontSize=12;verticalAlign=middle;" parent="pinVTupT54JZGEzq2_oa-56" vertex="1">
          <mxGeometry x="150" y="200" width="76.87" height="61.59" as="geometry" />
        </mxCell>
        <mxCell id="pinVTupT54JZGEzq2_oa-65" value="NVMe N" style="shape=cylinder3;whiteSpace=wrap;html=1;boundedLbl=1;backgroundOutline=1;size=15;fillColor=#d5e8d4;strokeColor=#82b366;fontSize=12;verticalAlign=middle;" parent="pinVTupT54JZGEzq2_oa-56" vertex="1">
          <mxGeometry x="420" y="200" width="76.87" height="61.59" as="geometry" />
        </mxCell>
        <mxCell id="pinVTupT54JZGEzq2_oa-66" value="" style="endArrow=none;dashed=1;html=1;dashPattern=1 3;strokeWidth=2;rounded=0;" parent="pinVTupT54JZGEzq2_oa-56" edge="1">
          <mxGeometry width="50" height="50" relative="1" as="geometry">
            <mxPoint x="310" y="232.3800000000001" as="sourcePoint" />
            <mxPoint x="331" y="232.3800000000001" as="targetPoint" />
            <Array as="points">
              <mxPoint x="310" y="232.3800000000001" />
            </Array>
          </mxGeometry>
        </mxCell>
        <mxCell id="pinVTupT54JZGEzq2_oa-67" value="nbs-disk-agent" style="text;strokeColor=none;fillColor=none;align=left;verticalAlign=middle;spacingLeft=4;spacingRight=4;overflow=hidden;points=[[0,0.5],[1,0.5]];portConstraint=eastwest;rotatable=0;whiteSpace=wrap;html=1;" parent="pinVTupT54JZGEzq2_oa-56" vertex="1">
          <mxGeometry x="420" width="90" height="20" as="geometry" />
        </mxCell>
        <mxCell id="pinVTupT54JZGEzq2_oa-68" style="edgeStyle=orthogonalEdgeStyle;rounded=0;orthogonalLoop=1;jettySize=auto;html=1;entryX=0.5;entryY=0;entryDx=0;entryDy=0;" parent="pinVTupT54JZGEzq2_oa-56" source="pinVTupT54JZGEzq2_oa-69" target="pinVTupT54JZGEzq2_oa-73" edge="1">
          <mxGeometry relative="1" as="geometry" />
        </mxCell>
        <mxCell id="pinVTupT54JZGEzq2_oa-69" value="IC" style="rounded=0;whiteSpace=wrap;html=1;fillColor=#dae8fc;strokeColor=#6c8ebf;" parent="pinVTupT54JZGEzq2_oa-56" vertex="1">
          <mxGeometry x="173.35" y="20" width="100" height="20" as="geometry" />
        </mxCell>
        <mxCell id="pinVTupT54JZGEzq2_oa-70" style="edgeStyle=orthogonalEdgeStyle;rounded=0;orthogonalLoop=1;jettySize=auto;html=1;exitX=0.5;exitY=1;exitDx=0;exitDy=0;entryX=1;entryY=0.5;entryDx=0;entryDy=0;fillColor=#d5e8d4;strokeColor=#82b366;" parent="pinVTupT54JZGEzq2_oa-56" source="pinVTupT54JZGEzq2_oa-71" target="pinVTupT54JZGEzq2_oa-73" edge="1">
          <mxGeometry relative="1" as="geometry" />
        </mxCell>
        <mxCell id="pinVTupT54JZGEzq2_oa-71" value="RDMA" style="rounded=0;whiteSpace=wrap;html=1;fillColor=#dae8fc;strokeColor=#6c8ebf;" parent="pinVTupT54JZGEzq2_oa-56" vertex="1">
          <mxGeometry x="350.85" y="20" width="90" height="20" as="geometry" />
        </mxCell>
        <mxCell id="pinVTupT54JZGEzq2_oa-73" value="AIO" style="rounded=0;whiteSpace=wrap;html=1;fillColor=#dae8fc;strokeColor=#6c8ebf;" parent="pinVTupT54JZGEzq2_oa-56" vertex="1">
          <mxGeometry x="173.35" y="60" width="100" height="20" as="geometry" />
        </mxCell>
        <mxCell id="pinVTupT54JZGEzq2_oa-76" value="" style="rounded=0;whiteSpace=wrap;html=1;fillColor=#d5e8d4;strokeColor=#82b366;" parent="pinVTupT54JZGEzq2_oa-56" vertex="1">
          <mxGeometry width="150" height="100" as="geometry" />
        </mxCell>
        <mxCell id="pinVTupT54JZGEzq2_oa-77" value="NVMe-oF" style="rounded=0;whiteSpace=wrap;html=1;fillColor=#dae8fc;strokeColor=#6c8ebf;" parent="pinVTupT54JZGEzq2_oa-56" vertex="1">
          <mxGeometry x="33.129999999999995" y="30" width="88.48" height="20" as="geometry" />
        </mxCell>
        <mxCell id="pinVTupT54JZGEzq2_oa-78" style="edgeStyle=orthogonalEdgeStyle;rounded=0;orthogonalLoop=1;jettySize=auto;html=1;exitX=0.5;exitY=1;exitDx=0;exitDy=0;entryX=1;entryY=0.5;entryDx=0;entryDy=0;entryPerimeter=0;fillColor=#d5e8d4;strokeColor=#82b366;" parent="pinVTupT54JZGEzq2_oa-56" source="pinVTupT54JZGEzq2_oa-73" target="pinVTupT54JZGEzq2_oa-59" edge="1">
          <mxGeometry relative="1" as="geometry">
            <Array as="points">
              <mxPoint x="220" y="80" />
              <mxPoint x="220" y="110" />
              <mxPoint x="130" y="110" />
              <mxPoint x="130" y="149" />
            </Array>
          </mxGeometry>
        </mxCell>
        <mxCell id="pinVTupT54JZGEzq2_oa-82" style="edgeStyle=orthogonalEdgeStyle;rounded=0;orthogonalLoop=1;jettySize=auto;html=1;exitX=0;exitY=0.5;exitDx=0;exitDy=0;entryX=0.5;entryY=1;entryDx=0;entryDy=0;entryPerimeter=0;fillColor=#d5e8d4;strokeColor=#82b366;" parent="pinVTupT54JZGEzq2_oa-56" source="pinVTupT54JZGEzq2_oa-77" target="pinVTupT54JZGEzq2_oa-65" edge="1">
          <mxGeometry relative="1" as="geometry">
            <Array as="points">
              <mxPoint x="20" y="40" />
              <mxPoint x="20" y="290" />
              <mxPoint x="458" y="290" />
            </Array>
          </mxGeometry>
        </mxCell>
        <mxCell id="_QEvc1p8I0f47gtQpfmM-4" value="SPDK" style="text;html=1;align=center;verticalAlign=middle;whiteSpace=wrap;rounded=0;" parent="pinVTupT54JZGEzq2_oa-56" vertex="1">
          <mxGeometry x="45" width="60" height="30" as="geometry" />
        </mxCell>
        <mxCell id="_QEvc1p8I0f47gtQpfmM-9" value="&lt;font style=&quot;font-size: 10px;&quot;&gt;with IC or RDMA you can use any protocol to access any disk type: hdd or ssd.&lt;/font&gt;" style="text;html=1;align=center;verticalAlign=middle;whiteSpace=wrap;rounded=0;" parent="pinVTupT54JZGEzq2_oa-56" vertex="1">
          <mxGeometry x="260" y="170" width="121.56" height="40" as="geometry" />
        </mxCell>
        <mxCell id="1gknGNaQA-s_sPEbhEw9-2" value="&lt;font style=&quot;font-size: 9px;&quot;&gt;SPDK is NVMe-only&lt;/font&gt;" style="text;html=1;align=center;verticalAlign=middle;whiteSpace=wrap;rounded=0;" parent="pinVTupT54JZGEzq2_oa-56" vertex="1">
          <mxGeometry x="33.13" y="50" width="86.87" height="20" as="geometry" />
        </mxCell>
        <mxCell id="pinVTupT54JZGEzq2_oa-84" value="" style="rounded=0;whiteSpace=wrap;html=1;align=left;" parent="1" vertex="1">
          <mxGeometry x="280" y="770" width="530" height="400" as="geometry" />
        </mxCell>
        <mxCell id="pinVTupT54JZGEzq2_oa-85" value="non replicated&amp;nbsp;&lt;div&gt;or&lt;/div&gt;&lt;div&gt;mirrored&amp;nbsp;&lt;span style=&quot;background-color: initial;&quot;&gt;disks&lt;/span&gt;&lt;/div&gt;" style="text;strokeColor=none;fillColor=none;align=left;verticalAlign=middle;spacingLeft=4;spacingRight=4;overflow=hidden;points=[[0,0.5],[1,0.5]];portConstraint=eastwest;rotatable=0;whiteSpace=wrap;html=1;" parent="1" vertex="1">
          <mxGeometry x="280" y="770" width="94.82" height="50" as="geometry" />
        </mxCell>
        <mxCell id="pinVTupT54JZGEzq2_oa-86" value="" style="rounded=0;whiteSpace=wrap;html=1;fillColor=#ffe6cc;strokeColor=#d79b00;" parent="1" vertex="1">
          <mxGeometry x="440" y="940" width="370" height="230" as="geometry" />
        </mxCell>
        <mxCell id="pinVTupT54JZGEzq2_oa-87" value="nbsd" style="text;strokeColor=none;fillColor=none;align=left;verticalAlign=middle;spacingLeft=4;spacingRight=4;overflow=hidden;points=[[0,0.5],[1,0.5]];portConstraint=eastwest;rotatable=0;whiteSpace=wrap;html=1;" parent="1" vertex="1">
          <mxGeometry x="770" y="940" width="40" height="20" as="geometry" />
        </mxCell>
        <mxCell id="pinVTupT54JZGEzq2_oa-88" style="edgeStyle=orthogonalEdgeStyle;rounded=0;orthogonalLoop=1;jettySize=auto;html=1;" parent="1" source="pinVTupT54JZGEzq2_oa-89" target="pinVTupT54JZGEzq2_oa-99" edge="1">
          <mxGeometry relative="1" as="geometry" />
        </mxCell>
        <mxCell id="pinVTupT54JZGEzq2_oa-89" value="Volume" style="rounded=0;whiteSpace=wrap;html=1;fillColor=#dae8fc;strokeColor=#6c8ebf;" parent="1" vertex="1">
          <mxGeometry x="463.35" y="1045" width="100" height="20" as="geometry" />
        </mxCell>
        <mxCell id="pinVTupT54JZGEzq2_oa-90" style="edgeStyle=orthogonalEdgeStyle;rounded=0;orthogonalLoop=1;jettySize=auto;html=1;exitX=0.5;exitY=1;exitDx=0;exitDy=0;entryX=0.5;entryY=0;entryDx=0;entryDy=0;" parent="1" source="pinVTupT54JZGEzq2_oa-91" target="pinVTupT54JZGEzq2_oa-89" edge="1">
          <mxGeometry relative="1" as="geometry" />
        </mxCell>
        <mxCell id="pinVTupT54JZGEzq2_oa-91" value="Service" style="rounded=0;whiteSpace=wrap;html=1;fillColor=#dae8fc;strokeColor=#6c8ebf;" parent="1" vertex="1">
          <mxGeometry x="463.99" y="1000" width="99.36" height="20" as="geometry" />
        </mxCell>
        <mxCell id="pinVTupT54JZGEzq2_oa-93" style="edgeStyle=orthogonalEdgeStyle;rounded=0;orthogonalLoop=1;jettySize=auto;html=1;" parent="1" source="pinVTupT54JZGEzq2_oa-94" target="pinVTupT54JZGEzq2_oa-102" edge="1">
          <mxGeometry relative="1" as="geometry" />
        </mxCell>
        <mxCell id="pinVTupT54JZGEzq2_oa-94" value="QEMU" style="rounded=0;whiteSpace=wrap;html=1;" parent="1" vertex="1">
          <mxGeometry x="388.67" y="830" width="250" height="60" as="geometry" />
        </mxCell>
        <mxCell id="pinVTupT54JZGEzq2_oa-95" value="SPDK" style="rounded=0;whiteSpace=wrap;html=1;fillColor=#d5e8d4;strokeColor=#82b366;verticalAlign=top;" parent="1" vertex="1">
          <mxGeometry x="280" y="940" width="160" height="230" as="geometry" />
        </mxCell>
        <mxCell id="pinVTupT54JZGEzq2_oa-96" value="NVMe-oF (RDMA, TCP etc)" style="rounded=0;whiteSpace=wrap;html=1;fillColor=#f8cecc;strokeColor=#b85450;" parent="1" vertex="1">
          <mxGeometry x="323.13" y="1130" width="90" height="60" as="geometry" />
        </mxCell>
        <mxCell id="pinVTupT54JZGEzq2_oa-97" style="edgeStyle=orthogonalEdgeStyle;rounded=0;orthogonalLoop=1;jettySize=auto;html=1;entryX=0.5;entryY=0;entryDx=0;entryDy=0;" parent="1" source="pinVTupT54JZGEzq2_oa-99" target="pinVTupT54JZGEzq2_oa-103" edge="1">
          <mxGeometry relative="1" as="geometry" />
        </mxCell>
        <mxCell id="pinVTupT54JZGEzq2_oa-98" style="edgeStyle=orthogonalEdgeStyle;rounded=0;orthogonalLoop=1;jettySize=auto;html=1;exitX=1;exitY=0.5;exitDx=0;exitDy=0;fillColor=#d5e8d4;strokeColor=#82b366;" parent="1" source="pinVTupT54JZGEzq2_oa-99" target="pinVTupT54JZGEzq2_oa-104" edge="1">
          <mxGeometry relative="1" as="geometry" />
        </mxCell>
        <mxCell id="pinVTupT54JZGEzq2_oa-99" value="Nonrepl Partition" style="rounded=0;whiteSpace=wrap;html=1;fillColor=#dae8fc;strokeColor=#6c8ebf;" parent="1" vertex="1">
          <mxGeometry x="463.35" y="1090" width="100" height="20" as="geometry" />
        </mxCell>
        <mxCell id="pinVTupT54JZGEzq2_oa-100" style="edgeStyle=orthogonalEdgeStyle;rounded=0;orthogonalLoop=1;jettySize=auto;html=1;exitX=0.5;exitY=1;exitDx=0;exitDy=0;" parent="1" source="pinVTupT54JZGEzq2_oa-102" target="pinVTupT54JZGEzq2_oa-91" edge="1">
          <mxGeometry relative="1" as="geometry" />
        </mxCell>
        <mxCell id="pinVTupT54JZGEzq2_oa-101" style="edgeStyle=orthogonalEdgeStyle;rounded=0;orthogonalLoop=1;jettySize=auto;html=1;exitX=0;exitY=0.5;exitDx=0;exitDy=0;entryX=0.5;entryY=0;entryDx=0;entryDy=0;fillColor=#d5e8d4;strokeColor=#82b366;" parent="1" source="pinVTupT54JZGEzq2_oa-102" target="pinVTupT54JZGEzq2_oa-77" edge="1">
          <mxGeometry relative="1" as="geometry" />
        </mxCell>
        <mxCell id="pinVTupT54JZGEzq2_oa-102" value="Storage" style="rounded=0;whiteSpace=wrap;html=1;fillColor=#dae8fc;strokeColor=#6c8ebf;" parent="1" vertex="1">
          <mxGeometry x="463.99" y="960" width="99.36" height="20" as="geometry" />
        </mxCell>
        <mxCell id="pinVTupT54JZGEzq2_oa-103" value="IC" style="rounded=0;whiteSpace=wrap;html=1;fillColor=#dae8fc;strokeColor=#6c8ebf;" parent="1" vertex="1">
          <mxGeometry x="463.35" y="1130" width="100" height="20" as="geometry" />
        </mxCell>
        <mxCell id="pinVTupT54JZGEzq2_oa-155" style="edgeStyle=orthogonalEdgeStyle;rounded=0;orthogonalLoop=1;jettySize=auto;html=1;exitX=0.5;exitY=1;exitDx=0;exitDy=0;entryX=0.5;entryY=0;entryDx=0;entryDy=0;fillColor=#d5e8d4;strokeColor=#82b366;" parent="1" source="pinVTupT54JZGEzq2_oa-104" target="pinVTupT54JZGEzq2_oa-71" edge="1">
          <mxGeometry relative="1" as="geometry" />
        </mxCell>
        <mxCell id="pinVTupT54JZGEzq2_oa-104" value="RDMA" style="rounded=0;whiteSpace=wrap;html=1;fillColor=#dae8fc;strokeColor=#6c8ebf;" parent="1" vertex="1">
          <mxGeometry x="638.67" y="1130" width="94.36" height="20" as="geometry" />
        </mxCell>
        <mxCell id="pinVTupT54JZGEzq2_oa-117" value="" style="group;align=left;verticalAlign=bottom;" parent="1" vertex="1" connectable="0">
          <mxGeometry x="290" y="1580" width="530" height="330" as="geometry" />
        </mxCell>
        <mxCell id="pinVTupT54JZGEzq2_oa-118" value="" style="rounded=0;whiteSpace=wrap;html=1;align=left;" parent="pinVTupT54JZGEzq2_oa-117" vertex="1">
          <mxGeometry x="-10" y="-10" width="530" height="320" as="geometry" />
        </mxCell>
        <mxCell id="pinVTupT54JZGEzq2_oa-119" value="" style="rounded=0;whiteSpace=wrap;html=1;fillColor=#ffe6cc;strokeColor=#d79b00;" parent="pinVTupT54JZGEzq2_oa-117" vertex="1">
          <mxGeometry x="150" width="360" height="100" as="geometry" />
        </mxCell>
        <mxCell id="pinVTupT54JZGEzq2_oa-120" value="HDD 1" style="shape=cylinder3;whiteSpace=wrap;html=1;boundedLbl=1;backgroundOutline=1;size=15;fontSize=12;verticalAlign=middle;" parent="pinVTupT54JZGEzq2_oa-117" vertex="1">
          <mxGeometry x="33.13" y="118.41" width="76.87" height="61.59" as="geometry" />
        </mxCell>
        <mxCell id="pinVTupT54JZGEzq2_oa-121" value="HDD 2" style="shape=cylinder3;whiteSpace=wrap;html=1;boundedLbl=1;backgroundOutline=1;size=15;fillColor=#d5e8d4;strokeColor=#82b366;fontSize=12;verticalAlign=middle;" parent="pinVTupT54JZGEzq2_oa-117" vertex="1">
          <mxGeometry x="150" y="117.62000000000012" width="76.87" height="61.59" as="geometry" />
        </mxCell>
        <mxCell id="pinVTupT54JZGEzq2_oa-122" value="HDD N" style="shape=cylinder3;whiteSpace=wrap;html=1;boundedLbl=1;backgroundOutline=1;size=15;fillColor=#d5e8d4;strokeColor=#82b366;fontSize=12;verticalAlign=middle;" parent="pinVTupT54JZGEzq2_oa-117" vertex="1">
          <mxGeometry x="420" y="117.62000000000012" width="76.87" height="61.59" as="geometry" />
        </mxCell>
        <mxCell id="pinVTupT54JZGEzq2_oa-123" value="" style="endArrow=none;dashed=1;html=1;dashPattern=1 3;strokeWidth=2;rounded=0;" parent="pinVTupT54JZGEzq2_oa-117" edge="1">
          <mxGeometry width="50" height="50" relative="1" as="geometry">
            <mxPoint x="310" y="150" as="sourcePoint" />
            <mxPoint x="331" y="150" as="targetPoint" />
            <Array as="points">
              <mxPoint x="310" y="150" />
            </Array>
          </mxGeometry>
        </mxCell>
        <mxCell id="pinVTupT54JZGEzq2_oa-124" value="NVMe 1" style="shape=cylinder3;whiteSpace=wrap;html=1;boundedLbl=1;backgroundOutline=1;size=15;fontSize=12;verticalAlign=middle;" parent="pinVTupT54JZGEzq2_oa-117" vertex="1">
          <mxGeometry x="33.129999999999995" y="199.99999999999997" width="76.87" height="61.59" as="geometry" />
        </mxCell>
        <mxCell id="pinVTupT54JZGEzq2_oa-125" value="NVMe 2" style="shape=cylinder3;whiteSpace=wrap;html=1;boundedLbl=1;backgroundOutline=1;size=15;fillColor=#d5e8d4;strokeColor=#82b366;fontSize=12;verticalAlign=middle;" parent="pinVTupT54JZGEzq2_oa-117" vertex="1">
          <mxGeometry x="150" y="200" width="76.87" height="61.59" as="geometry" />
        </mxCell>
        <mxCell id="pinVTupT54JZGEzq2_oa-126" value="NVMe N" style="shape=cylinder3;whiteSpace=wrap;html=1;boundedLbl=1;backgroundOutline=1;size=15;fontSize=12;verticalAlign=middle;" parent="pinVTupT54JZGEzq2_oa-117" vertex="1">
          <mxGeometry x="420" y="200" width="76.87" height="61.59" as="geometry" />
        </mxCell>
        <mxCell id="pinVTupT54JZGEzq2_oa-127" value="" style="endArrow=none;dashed=1;html=1;dashPattern=1 3;strokeWidth=2;rounded=0;" parent="pinVTupT54JZGEzq2_oa-117" edge="1">
          <mxGeometry width="50" height="50" relative="1" as="geometry">
            <mxPoint x="310" y="232.3800000000001" as="sourcePoint" />
            <mxPoint x="331" y="232.3800000000001" as="targetPoint" />
            <Array as="points">
              <mxPoint x="310" y="232.3800000000001" />
            </Array>
          </mxGeometry>
        </mxCell>
        <mxCell id="pinVTupT54JZGEzq2_oa-128" value="nbs-disk-agent" style="text;strokeColor=none;fillColor=none;align=left;verticalAlign=middle;spacingLeft=4;spacingRight=4;overflow=hidden;points=[[0,0.5],[1,0.5]];portConstraint=eastwest;rotatable=0;whiteSpace=wrap;html=1;" parent="pinVTupT54JZGEzq2_oa-117" vertex="1">
          <mxGeometry x="420" width="90" height="20" as="geometry" />
        </mxCell>
        <mxCell id="pinVTupT54JZGEzq2_oa-129" style="edgeStyle=orthogonalEdgeStyle;rounded=0;orthogonalLoop=1;jettySize=auto;html=1;entryX=0.5;entryY=0;entryDx=0;entryDy=0;" parent="pinVTupT54JZGEzq2_oa-117" source="pinVTupT54JZGEzq2_oa-130" target="pinVTupT54JZGEzq2_oa-134" edge="1">
          <mxGeometry relative="1" as="geometry" />
        </mxCell>
        <mxCell id="pinVTupT54JZGEzq2_oa-130" value="IC" style="rounded=0;whiteSpace=wrap;html=1;fillColor=#dae8fc;strokeColor=#6c8ebf;" parent="pinVTupT54JZGEzq2_oa-117" vertex="1">
          <mxGeometry x="170" y="20" width="100" height="20" as="geometry" />
        </mxCell>
        <mxCell id="pinVTupT54JZGEzq2_oa-131" style="edgeStyle=orthogonalEdgeStyle;rounded=0;orthogonalLoop=1;jettySize=auto;html=1;exitX=0.5;exitY=1;exitDx=0;exitDy=0;entryX=1;entryY=0.5;entryDx=0;entryDy=0;fillColor=#d5e8d4;strokeColor=#82b366;" parent="pinVTupT54JZGEzq2_oa-117" source="pinVTupT54JZGEzq2_oa-132" target="pinVTupT54JZGEzq2_oa-134" edge="1">
          <mxGeometry relative="1" as="geometry" />
        </mxCell>
        <mxCell id="pinVTupT54JZGEzq2_oa-132" value="RDMA" style="rounded=0;whiteSpace=wrap;html=1;fillColor=#dae8fc;strokeColor=#6c8ebf;" parent="pinVTupT54JZGEzq2_oa-117" vertex="1">
          <mxGeometry x="300" y="20" width="90" height="20" as="geometry" />
        </mxCell>
        <mxCell id="pinVTupT54JZGEzq2_oa-133" style="edgeStyle=orthogonalEdgeStyle;rounded=0;orthogonalLoop=1;jettySize=auto;html=1;exitX=0.5;exitY=1;exitDx=0;exitDy=0;entryX=0;entryY=0.5;entryDx=0;entryDy=0;entryPerimeter=0;fillColor=#d5e8d4;strokeColor=#82b366;" parent="pinVTupT54JZGEzq2_oa-117" source="pinVTupT54JZGEzq2_oa-134" target="pinVTupT54JZGEzq2_oa-122" edge="1">
          <mxGeometry relative="1" as="geometry">
            <Array as="points">
              <mxPoint x="220" y="110" />
              <mxPoint x="400" y="110" />
              <mxPoint x="400" y="148" />
            </Array>
          </mxGeometry>
        </mxCell>
        <mxCell id="pinVTupT54JZGEzq2_oa-134" value="AIO" style="rounded=0;whiteSpace=wrap;html=1;fillColor=#dae8fc;strokeColor=#6c8ebf;" parent="pinVTupT54JZGEzq2_oa-117" vertex="1">
          <mxGeometry x="170" y="60" width="100" height="20" as="geometry" />
        </mxCell>
        <mxCell id="pinVTupT54JZGEzq2_oa-135" style="edgeStyle=orthogonalEdgeStyle;rounded=0;orthogonalLoop=1;jettySize=auto;html=1;entryX=1.003;entryY=0.544;entryDx=0;entryDy=0;entryPerimeter=0;fillColor=#d5e8d4;strokeColor=#82b366;" parent="pinVTupT54JZGEzq2_oa-117" source="pinVTupT54JZGEzq2_oa-134" target="pinVTupT54JZGEzq2_oa-121" edge="1">
          <mxGeometry relative="1" as="geometry">
            <Array as="points">
              <mxPoint x="220" y="110" />
              <mxPoint x="250" y="110" />
              <mxPoint x="250" y="151" />
            </Array>
          </mxGeometry>
        </mxCell>
        <mxCell id="pinVTupT54JZGEzq2_oa-137" value="" style="rounded=0;whiteSpace=wrap;html=1;fillColor=#d5e8d4;strokeColor=#82b366;" parent="pinVTupT54JZGEzq2_oa-117" vertex="1">
          <mxGeometry width="150" height="100" as="geometry" />
        </mxCell>
        <mxCell id="pinVTupT54JZGEzq2_oa-138" value="NVMe-oF" style="rounded=0;whiteSpace=wrap;html=1;fillColor=#dae8fc;strokeColor=#6c8ebf;" parent="pinVTupT54JZGEzq2_oa-117" vertex="1">
          <mxGeometry x="33.129999999999995" y="60" width="88.48" height="20" as="geometry" />
        </mxCell>
        <mxCell id="pinVTupT54JZGEzq2_oa-142" style="edgeStyle=orthogonalEdgeStyle;rounded=0;orthogonalLoop=1;jettySize=auto;html=1;exitX=0;exitY=0.5;exitDx=0;exitDy=0;entryX=0.5;entryY=1;entryDx=0;entryDy=0;entryPerimeter=0;fillColor=#d5e8d4;strokeColor=#82b366;" parent="pinVTupT54JZGEzq2_oa-117" source="pinVTupT54JZGEzq2_oa-138" target="pinVTupT54JZGEzq2_oa-125" edge="1">
          <mxGeometry relative="1" as="geometry">
            <Array as="points">
              <mxPoint x="20" y="70" />
              <mxPoint x="20" y="290" />
              <mxPoint x="188" y="290" />
            </Array>
          </mxGeometry>
        </mxCell>
        <mxCell id="_QEvc1p8I0f47gtQpfmM-5" value="SPDK" style="text;html=1;align=center;verticalAlign=middle;whiteSpace=wrap;rounded=0;" parent="pinVTupT54JZGEzq2_oa-117" vertex="1">
          <mxGeometry x="47.370000000000005" width="60" height="30" as="geometry" />
        </mxCell>
        <mxCell id="pinVTupT54JZGEzq2_oa-146" value="or" style="rounded=0;whiteSpace=wrap;html=1;fillColor=#e1d5e7;strokeColor=#9673a6;" parent="1" vertex="1">
          <mxGeometry x="590" y="1160" width="20" height="20" as="geometry" />
        </mxCell>
        <mxCell id="pinVTupT54JZGEzq2_oa-147" value="or" style="rounded=0;whiteSpace=wrap;html=1;fillColor=#e1d5e7;strokeColor=#9673a6;" parent="1" vertex="1">
          <mxGeometry x="430" y="1160" width="20" height="20" as="geometry" />
        </mxCell>
        <mxCell id="pinVTupT54JZGEzq2_oa-148" style="edgeStyle=orthogonalEdgeStyle;rounded=0;orthogonalLoop=1;jettySize=auto;html=1;exitX=0.5;exitY=1;exitDx=0;exitDy=0;entryX=0.5;entryY=0;entryDx=0;entryDy=0;fillColor=#d5e8d4;strokeColor=#82b366;" parent="1" source="pinVTupT54JZGEzq2_oa-96" target="pinVTupT54JZGEzq2_oa-138" edge="1">
          <mxGeometry relative="1" as="geometry">
            <Array as="points">
              <mxPoint x="368" y="1200" />
              <mxPoint x="250" y="1200" />
              <mxPoint x="250" y="1550" />
              <mxPoint x="367" y="1550" />
            </Array>
          </mxGeometry>
        </mxCell>
        <mxCell id="pinVTupT54JZGEzq2_oa-150" value="IC (custom)" style="rounded=0;whiteSpace=wrap;html=1;fillColor=#f8cecc;strokeColor=#b85450;" parent="1" vertex="1">
          <mxGeometry x="463.35" y="1160" width="100" height="20" as="geometry" />
        </mxCell>
        <mxCell id="pinVTupT54JZGEzq2_oa-151" value="RDMA (custom)" style="rounded=0;whiteSpace=wrap;html=1;fillColor=#f8cecc;strokeColor=#b85450;" parent="1" vertex="1">
          <mxGeometry x="640" y="1160" width="94.36" height="20" as="geometry" />
        </mxCell>
        <mxCell id="pinVTupT54JZGEzq2_oa-156" style="edgeStyle=orthogonalEdgeStyle;rounded=0;orthogonalLoop=1;jettySize=auto;html=1;exitX=0.5;exitY=1;exitDx=0;exitDy=0;entryX=0.5;entryY=0;entryDx=0;entryDy=0;" parent="1" source="pinVTupT54JZGEzq2_oa-103" target="pinVTupT54JZGEzq2_oa-69" edge="1">
          <mxGeometry relative="1" as="geometry" />
        </mxCell>
        <mxCell id="pinVTupT54JZGEzq2_oa-157" style="edgeStyle=orthogonalEdgeStyle;rounded=0;orthogonalLoop=1;jettySize=auto;html=1;exitX=0.5;exitY=1;exitDx=0;exitDy=0;entryX=0.5;entryY=0;entryDx=0;entryDy=0;fillColor=#d5e8d4;strokeColor=#82b366;" parent="1" source="pinVTupT54JZGEzq2_oa-104" target="pinVTupT54JZGEzq2_oa-132" edge="1">
          <mxGeometry relative="1" as="geometry">
            <Array as="points">
              <mxPoint x="686" y="1200" />
              <mxPoint x="850" y="1200" />
              <mxPoint x="850" y="1550" />
              <mxPoint x="635" y="1550" />
            </Array>
          </mxGeometry>
        </mxCell>
        <mxCell id="pinVTupT54JZGEzq2_oa-158" value="External components" style="rounded=0;whiteSpace=wrap;html=1;fillColor=#d5e8d4;strokeColor=#82b366;" parent="1" vertex="1">
          <mxGeometry x="939.23" y="590" width="120" height="20" as="geometry" />
        </mxCell>
        <mxCell id="pinVTupT54JZGEzq2_oa-92" value="{Allocate,Acquire,Release}&lt;br&gt;Disk" style="text;html=1;strokeColor=none;fillColor=none;align=center;verticalAlign=middle;whiteSpace=wrap;rounded=0;" parent="1" vertex="1">
          <mxGeometry x="630" y="988.07" width="150" height="25" as="geometry" />
        </mxCell>
        <mxCell id="pinVTupT54JZGEzq2_oa-162" value="non repl partition&amp;nbsp; chooses on which chunk goes request, chunks usually are 93 GiB" style="text;html=1;align=center;verticalAlign=middle;whiteSpace=wrap;rounded=0;" parent="1" vertex="1">
          <mxGeometry x="690" y="1045" width="110" height="90" as="geometry" />
        </mxCell>
        <mxCell id="pinVTupT54JZGEzq2_oa-163" value="For mirrored disks we write to multiple disks to tolerate failure&amp;nbsp;" style="text;html=1;align=right;verticalAlign=middle;whiteSpace=wrap;rounded=0;" parent="1" vertex="1">
          <mxGeometry x="640" y="770" width="170" height="50" as="geometry" />
        </mxCell>
        <mxCell id="pinVTupT54JZGEzq2_oa-164" value="" style="rounded=0;whiteSpace=wrap;html=1;" parent="1" vertex="1">
          <mxGeometry x="840" y="920" width="190" height="180" as="geometry" />
        </mxCell>
        <mxCell id="pinVTupT54JZGEzq2_oa-165" value="" style="rounded=0;whiteSpace=wrap;html=1;fillColor=#ffe6cc;strokeColor=#d79b00;" parent="1" vertex="1">
          <mxGeometry x="840" y="930" width="190" height="160" as="geometry" />
        </mxCell>
        <mxCell id="XQ-VizRQmGnHVBo7JK1_-274" value="DISK_REGISTRY&lt;br&gt;tablet containing map disk to device, and&lt;div&gt;map device to hosts&lt;/div&gt;" style="rounded=0;whiteSpace=wrap;html=1;fillColor=#dae8fc;strokeColor=#6c8ebf;" parent="1" vertex="1">
          <mxGeometry x="863.53" y="940" width="116.47" height="120" as="geometry" />
        </mxCell>
        <mxCell id="pinVTupT54JZGEzq2_oa-166" value="nbsd" style="text;strokeColor=none;fillColor=none;align=left;verticalAlign=middle;spacingLeft=4;spacingRight=4;overflow=hidden;points=[[0,0.5],[1,0.5]];portConstraint=eastwest;rotatable=0;whiteSpace=wrap;html=1;" parent="1" vertex="1">
          <mxGeometry x="990" y="930" width="40" height="20" as="geometry" />
        </mxCell>
        <mxCell id="XQ-VizRQmGnHVBo7JK1_-454" value="{Allocate,Acquire,Release}&lt;br&gt;Disk" style="text;html=1;strokeColor=none;fillColor=none;align=center;verticalAlign=middle;whiteSpace=wrap;rounded=0;" parent="1" vertex="1">
          <mxGeometry x="1028.826274509804" y="988.0709433962264" width="61.17647058823529" height="23.0188679245283" as="geometry" />
        </mxCell>
        <mxCell id="pinVTupT54JZGEzq2_oa-161" style="edgeStyle=orthogonalEdgeStyle;rounded=0;orthogonalLoop=1;jettySize=auto;html=1;exitX=1;exitY=0.5;exitDx=0;exitDy=0;entryX=0;entryY=0.5;entryDx=0;entryDy=0;fillColor=#dae8fc;strokeColor=#6c8ebf;" parent="1" source="pinVTupT54JZGEzq2_oa-89" target="XQ-VizRQmGnHVBo7JK1_-274" edge="1">
          <mxGeometry relative="1" as="geometry">
            <Array as="points">
              <mxPoint x="580" y="1055" />
              <mxPoint x="580" y="1000" />
            </Array>
          </mxGeometry>
        </mxCell>
        <mxCell id="pinVTupT54JZGEzq2_oa-1" style="edgeStyle=orthogonalEdgeStyle;rounded=0;orthogonalLoop=1;jettySize=auto;html=1;exitX=0;exitY=0.5;exitDx=0;exitDy=0;entryX=1;entryY=0.5;entryDx=0;entryDy=0;fillColor=#dae8fc;strokeColor=#6c8ebf;" parent="1" source="XQ-VizRQmGnHVBo7JK1_-450" target="XQ-VizRQmGnHVBo7JK1_-274" edge="1">
          <mxGeometry relative="1" as="geometry">
            <Array as="points">
              <mxPoint x="1100" y="1014" />
              <mxPoint x="1100" y="1000" />
            </Array>
          </mxGeometry>
        </mxCell>
        <mxCell id="1gknGNaQA-s_sPEbhEw9-1" value="Text" style="text;html=1;align=center;verticalAlign=middle;whiteSpace=wrap;rounded=0;" parent="1" vertex="1">
          <mxGeometry x="590" y="1320" width="60" height="30" as="geometry" />
        </mxCell>
        <mxCell id="1gknGNaQA-s_sPEbhEw9-3" value="NVMe-oF" style="rounded=0;whiteSpace=wrap;html=1;fillColor=#dae8fc;strokeColor=#6c8ebf;" parent="1" vertex="1">
          <mxGeometry x="325" y="1100" width="88.48" height="20" as="geometry" />
        </mxCell>
      </root>
    </mxGraphModel>
  </diagram>
</mxfile>
